# 3ds Max Wavefront OBJ Exporter v0.99 - (c)2007 guruware
# File Created: 06.05.2025 20:42:44

mtllib ManosLimonagrio_obj.mtl

#
# object Brazos
#

v  2.7150 -1.0147 -0.0314
v  1.8064 2.4322 -0.0597
v  2.7318 -1.0217 -0.0597
v  1.7924 2.4285 -0.0314
v  2.2930 0.7027 -0.0821
v  1.8281 2.4381 -0.0821
v  2.7580 -1.0326 -0.0821
v  2.3232 0.6996 -0.0966
v  2.0893 1.5725 -0.0966
v  2.7910 -1.0463 -0.0966
v  2.3566 0.6960 -0.1015
v  2.1212 1.5748 -0.1015
v  2.3838 0.7158 -0.0966
v  2.8516 -1.0300 -0.0966
v  2.8275 -1.0614 -0.1015
v  1.9160 2.4616 -0.0966
v  2.4083 0.7336 -0.0821
v  2.8733 -1.0017 -0.0821
v  1.9650 2.4748 -0.0597
v  2.8905 -0.9792 -0.0597
v  1.9790 2.4785 -0.0314
v  2.9016 -0.9647 -0.0314
v  1.9838 2.4798 -0.0000
v  2.9054 -0.9598 0.0000
v  1.9790 2.4785 0.0314
v  2.9016 -0.9647 0.0314
v  1.9650 2.4748 0.0597
v  2.8905 -0.9792 0.0597
v  2.4083 0.7336 0.0821
v  1.9433 2.4690 0.0821
v  2.8733 -1.0017 0.0821
v  2.3838 0.7158 0.0966
v  2.1499 1.5887 0.0966
v  2.8516 -1.0300 0.0966
v  2.3566 0.6960 0.1015
v  2.1212 1.5748 0.1015
v  2.3232 0.6996 0.0966
v  2.7910 -1.0463 0.0966
v  2.8275 -1.0614 0.1015
v  1.8554 2.4454 0.0966
v  2.2930 0.7027 0.0821
v  2.7580 -1.0326 0.0821
v  1.8064 2.4322 0.0597
v  2.7318 -1.0217 0.0597
v  1.7924 2.4285 0.0314
v  2.7150 -1.0147 0.0314
v  1.7876 2.4272 -0.0000
v  2.7092 -1.0123 0.0000
v  1.8857 2.4535 -0.0000
v  1.8554 2.4454 -0.0966
v  1.8857 2.4535 -0.1015
v  1.9433 2.4690 -0.0821
v  1.9160 2.4616 0.0966
v  1.8857 2.4535 0.1015
v  1.8281 2.4381 0.0821
v  2.9433 -1.8667 -0.0314
v  2.9608 -1.8764 -0.0597
v  3.0606 -1.9312 0.0000
v  2.9881 -1.8914 -0.0821
v  3.0225 -1.9103 -0.0966
v  3.0606 -1.9312 -0.1015
v  3.0831 -1.8940 -0.0966
v  3.1034 -1.8605 -0.0821
v  3.1195 -1.8339 -0.0597
v  3.1299 -1.8168 -0.0314
v  3.1334 -1.8109 0.0000
v  3.1299 -1.8168 0.0314
v  3.1195 -1.8339 0.0597
v  3.1034 -1.8605 0.0821
v  3.0831 -1.8940 0.0966
v  3.0606 -1.9312 0.1015
v  3.0225 -1.9103 0.0966
v  2.9881 -1.8914 0.0821
v  2.9608 -1.8764 0.0597
v  2.9433 -1.8667 0.0314
v  2.9373 -1.8634 0.0000
v  -1.9311 -0.9647 -0.0314
v  -0.9946 2.4748 -0.0597
v  -1.9201 -0.9792 -0.0597
v  -1.0085 2.4785 -0.0314
v  -1.4379 0.7336 -0.0821
v  -0.9729 2.4690 -0.0821
v  -1.9029 -1.0017 -0.0821
v  -1.4134 0.7158 -0.0966
v  -1.1795 1.5887 -0.0966
v  -1.8811 -1.0300 -0.0966
v  -1.3862 0.6960 -0.1015
v  -1.1507 1.5748 -0.1015
v  -1.3527 0.6996 -0.0966
v  -1.8205 -1.0463 -0.0966
v  -1.8571 -1.0614 -0.1015
v  -0.8849 2.4454 -0.0966
v  -1.3226 0.7027 -0.0821
v  -1.7876 -1.0326 -0.0821
v  -0.8359 2.4322 -0.0597
v  -1.7614 -1.0217 -0.0597
v  -0.8220 2.4285 -0.0314
v  -1.7446 -1.0147 -0.0314
v  -0.8172 2.4272 -0.0000
v  -1.7388 -1.0123 0.0000
v  -0.8220 2.4285 0.0314
v  -1.7446 -1.0147 0.0314
v  -0.8359 2.4322 0.0597
v  -1.7614 -1.0217 0.0597
v  -1.3226 0.7027 0.0821
v  -0.8576 2.4381 0.0821
v  -1.7876 -1.0326 0.0821
v  -1.3527 0.6996 0.0966
v  -1.1188 1.5725 0.0966
v  -1.8205 -1.0463 0.0966
v  -1.3862 0.6960 0.1015
v  -1.1507 1.5748 0.1015
v  -1.4134 0.7158 0.0966
v  -1.8811 -1.0300 0.0966
v  -1.8571 -1.0614 0.1015
v  -0.9456 2.4616 0.0966
v  -1.4379 0.7336 0.0821
v  -1.9029 -1.0017 0.0821
v  -0.9946 2.4748 0.0597
v  -1.9201 -0.9792 0.0597
v  -1.0085 2.4785 0.0314
v  -1.9311 -0.9647 0.0314
v  -1.0133 2.4798 -0.0000
v  -1.9349 -0.9598 0.0000
v  -0.9153 2.4535 -0.0000
v  -0.9456 2.4616 -0.0966
v  -0.9153 2.4535 -0.1015
v  -0.8576 2.4381 -0.0821
v  -0.8849 2.4454 0.0966
v  -0.9153 2.4535 0.1015
v  -0.9729 2.4690 0.0821
v  -2.1594 -1.8168 -0.0314
v  -2.1491 -1.8339 -0.0597
v  -2.0901 -1.9312 0.0000
v  -2.1330 -1.8605 -0.0821
v  -2.1127 -1.8940 -0.0966
v  -2.0901 -1.9312 -0.1015
v  -2.0520 -1.9103 -0.0966
v  -2.0177 -1.8914 -0.0821
v  -1.9904 -1.8764 -0.0597
v  -1.9729 -1.8667 -0.0314
v  -1.9669 -1.8634 0.0000
v  -1.9729 -1.8667 0.0314
v  -1.9904 -1.8764 0.0597
v  -2.0177 -1.8914 0.0821
v  -2.0520 -1.9103 0.0966
v  -2.0901 -1.9312 0.1015
v  -2.1127 -1.8940 0.0966
v  -2.1330 -1.8605 0.0821
v  -2.1491 -1.8339 0.0597
v  -2.1594 -1.8168 0.0314
v  -2.1630 -1.8109 0.0000
# 152 vertices

vn -0.9145 -0.2451 -0.3218
vn -0.7813 -0.2093 -0.5880
vn -0.7671 -0.2055 -0.6077
vn -0.9186 -0.2461 -0.3092
vn -0.5545 -0.1486 -0.8188
vn -0.5674 -0.1520 -0.8093
vn -0.5415 -0.1451 -0.8281
vn -0.2807 -0.0752 -0.9568
vn -0.2894 -0.0775 -0.9541
vn -0.2633 -0.0705 -0.9621
vn 0.0000 -0.0000 -1.0000
vn 0.2807 0.0752 -0.9568
vn 0.2633 0.0705 -0.9621
vn 0.2980 0.0799 -0.9512
vn 0.5546 0.1486 -0.8188
vn 0.5415 0.1451 -0.8281
vn 0.7813 0.2093 -0.5880
vn 0.7671 0.2055 -0.6077
vn 0.9186 0.2461 -0.3092
vn 0.9145 0.2451 -0.3218
vn 0.9659 0.2588 0.0000
vn 0.9186 0.2461 0.3092
vn 0.9145 0.2451 0.3218
vn 0.7813 0.2093 0.5880
vn 0.7671 0.2055 0.6077
vn 0.5545 0.1486 0.8188
vn 0.5674 0.1520 0.8093
vn 0.5415 0.1451 0.8281
vn 0.2807 0.0752 0.9568
vn 0.2894 0.0775 0.9541
vn 0.2633 0.0705 0.9621
vn 0.0000 0.0000 1.0000
vn -0.2807 -0.0752 0.9568
vn -0.2633 -0.0705 0.9621
vn -0.2980 -0.0799 0.9512
vn -0.5545 -0.1486 0.8188
vn -0.5415 -0.1451 0.8281
vn -0.7813 -0.2093 0.5880
vn -0.7671 -0.2055 0.6077
vn -0.9186 -0.2461 0.3092
vn -0.9145 -0.2451 0.3218
vn -0.9659 -0.2588 0.0000
vn -0.2588 0.9659 -0.0000
vn -0.4819 -0.8762 0.0000
vn 0.2588 -0.9659 -0.0000
vn 0.8554 -0.5179 -0.0000
vn -0.2307 -0.0618 0.9711
vn 0.2307 0.0618 0.9711
vn 0.5168 0.1385 0.8448
vn 0.7532 0.2018 0.6261
vn 0.9105 0.2440 0.3338
vn 0.9105 0.2440 -0.3338
vn 0.7532 0.2018 -0.6261
vn 0.5168 0.1385 -0.8448
vn 0.2307 0.0618 -0.9711
vn -0.2307 -0.0618 -0.9711
vn -0.5168 -0.1385 -0.8448
vn -0.7532 -0.2018 -0.6261
vn -0.9105 -0.2440 -0.3338
vn -0.9105 -0.2440 0.3338
vn -0.7532 -0.2018 0.6261
vn -0.5168 -0.1385 0.8448
vn -0.5674 -0.1520 0.8093
vn 0.2980 0.0799 0.9512
vn 0.5674 0.1520 -0.8093
vn -0.2980 -0.0799 -0.9512
vn -0.9145 0.2451 -0.3218
vn -0.7813 0.2093 -0.5880
vn -0.7671 0.2055 -0.6077
vn -0.9186 0.2461 -0.3092
vn -0.5545 0.1486 -0.8188
vn -0.5674 0.1520 -0.8093
vn -0.5415 0.1451 -0.8281
vn -0.2807 0.0752 -0.9568
vn -0.2894 0.0775 -0.9541
vn -0.2633 0.0705 -0.9621
vn 0.2807 -0.0752 -0.9568
vn 0.2633 -0.0705 -0.9621
vn 0.2980 -0.0799 -0.9512
vn 0.5545 -0.1486 -0.8188
vn 0.5415 -0.1451 -0.8281
vn 0.7813 -0.2093 -0.5880
vn 0.7671 -0.2055 -0.6077
vn 0.9186 -0.2461 -0.3092
vn 0.9145 -0.2451 -0.3218
vn 0.9659 -0.2588 -0.0000
vn 0.9186 -0.2461 0.3092
vn 0.9145 -0.2451 0.3218
vn 0.7813 -0.2093 0.5880
vn 0.7671 -0.2055 0.6077
vn 0.5545 -0.1486 0.8188
vn 0.5674 -0.1520 0.8093
vn 0.5415 -0.1451 0.8281
vn 0.2807 -0.0752 0.9568
vn 0.2894 -0.0775 0.9541
vn 0.2633 -0.0705 0.9621
vn 0.0000 -0.0000 1.0000
vn -0.2807 0.0752 0.9568
vn -0.2633 0.0705 0.9621
vn -0.2980 0.0799 0.9512
vn -0.5545 0.1486 0.8188
vn -0.5415 0.1451 0.8281
vn -0.7813 0.2093 0.5880
vn -0.7671 0.2055 0.6077
vn -0.9186 0.2461 0.3092
vn -0.9145 0.2451 0.3218
vn -0.9659 0.2588 0.0000
vn 0.2588 0.9659 -0.0000
vn -0.8554 -0.5179 0.0000
vn -0.2588 -0.9659 0.0000
vn 0.4819 -0.8762 -0.0000
vn -0.2307 0.0618 0.9711
vn 0.2307 -0.0618 0.9711
vn 0.5168 -0.1385 0.8448
vn 0.7532 -0.2018 0.6261
vn 0.9105 -0.2440 0.3338
vn 0.9105 -0.2440 -0.3338
vn 0.7532 -0.2018 -0.6261
vn 0.5168 -0.1385 -0.8448
vn 0.2307 -0.0618 -0.9711
vn -0.2307 0.0618 -0.9711
vn -0.5168 0.1385 -0.8448
vn -0.7532 0.2018 -0.6261
vn -0.9105 0.2440 -0.3338
vn -0.9105 0.2440 0.3338
vn -0.7532 0.2018 0.6261
vn -0.5168 0.1385 0.8448
vn -0.5674 0.1520 0.8093
vn 0.2980 -0.0799 0.9512
vn 0.5674 -0.1520 -0.8093
vn -0.2980 0.0799 -0.9512
# 131 vertex normals

vt 0.6509 0.5674 0.0000
vt 0.6515 0.5761 0.0000
vt 0.6511 0.5673 0.0000
vt 0.6513 0.5762 0.0000
vt 0.6515 0.5714 0.0000
vt 0.6517 0.5758 0.0000
vt 0.6513 0.5670 0.0000
vt 0.6517 0.5711 0.0000
vt 0.6518 0.5734 0.0000
vt 0.6515 0.5667 0.0000
vt 0.6517 0.5708 0.0000
vt 0.6518 0.5730 0.0000
vt 0.6516 0.5706 0.0000
vt 0.6514 0.5661 0.0000
vt 0.6515 0.5663 0.0000
vt 0.6518 0.5750 0.0000
vt 0.6515 0.5703 0.0000
vt 0.6513 0.5659 0.0000
vt 0.6515 0.5745 0.0000
vt 0.6511 0.5657 0.0000
vt 0.6512 0.5744 0.0000
vt 0.6508 0.5657 0.0000
vt 0.6509 0.5744 0.0000
vt 0.6505 0.5656 0.0000
vt 0.6506 0.5745 0.0000
vt 0.6502 0.5657 0.0000
vt 0.6503 0.5746 0.0000
vt 0.6499 0.5658 0.0000
vt 0.6499 0.5704 0.0000
vt 0.6501 0.5748 0.0000
vt 0.6497 0.5660 0.0000
vt 0.6498 0.5706 0.0000
vt 0.6499 0.5729 0.0000
vt 0.6496 0.5662 0.0000
vt 0.6498 0.5709 0.0000
vt 0.6499 0.5731 0.0000
vt 0.6498 0.5712 0.0000
vt 0.6496 0.5668 0.0000
vt 0.6496 0.5664 0.0000
vt 0.6500 0.5757 0.0000
vt 0.6500 0.5715 0.0000
vt 0.6498 0.5671 0.0000
vt 0.6504 0.5761 0.0000
vt 0.6500 0.5673 0.0000
vt 0.6507 0.5762 0.0000
vt 0.6503 0.5675 0.0000
vt 0.6510 0.5763 0.0000
vt 0.6506 0.5675 0.0000
vt 0.6509 0.5753 0.0000
vt 0.6519 0.5756 0.0000
vt 0.6519 0.5753 0.0000
vt 0.6517 0.5747 0.0000
vt 0.6500 0.5751 0.0000
vt 0.6500 0.5754 0.0000
vt 0.6502 0.5759 0.0000
vt 0.5100 0.7842 0.0000
vt 0.5105 0.7841 0.0000
vt 0.5112 0.7858 0.0000
vt 0.5111 0.7840 0.0000
vt 0.5117 0.7842 0.0000
vt 0.5122 0.7845 0.0000
vt 0.5125 0.7848 0.0000
vt 0.5126 0.7852 0.0000
vt 0.5126 0.7857 0.0000
vt 0.5124 0.7861 0.0000
vt 0.5121 0.7866 0.0000
vt 0.5118 0.7869 0.0000
vt 0.5113 0.7872 0.0000
vt 0.5109 0.7873 0.0000
vt 0.5105 0.7873 0.0000
vt 0.5102 0.7871 0.0000
vt 0.5097 0.7867 0.0000
vt 0.5094 0.7862 0.0000
vt 0.5093 0.7856 0.0000
vt 0.5094 0.7850 0.0000
vt 0.5096 0.7846 0.0000
vt 0.5072 0.7848 0.0000
vt 0.5067 0.7843 0.0000
vt 0.5075 0.7849 0.0000
vt 0.5079 0.7850 0.0000
vt 0.5084 0.7849 0.0000
vt 0.5088 0.7846 0.0000
vt 0.5092 0.7843 0.0000
vt 0.5095 0.7838 0.0000
vt 0.5096 0.7833 0.0000
vt 0.5096 0.7829 0.0000
vt 0.5095 0.7825 0.0000
vt 0.5092 0.7822 0.0000
vt 0.5087 0.7818 0.0000
vt 0.5081 0.7817 0.0000
vt 0.5076 0.7817 0.0000
vt 0.5071 0.7819 0.0000
vt 0.5067 0.7823 0.0000
vt 0.5064 0.7827 0.0000
vt 0.5063 0.7833 0.0000
vt 0.5065 0.7838 0.0000
vt 0.6529 0.6116 0.0000
vt 0.6528 0.6027 0.0000
vt 0.6532 0.6115 0.0000
vt 0.6525 0.6028 0.0000
vt 0.6532 0.6069 0.0000
vt 0.6530 0.6025 0.0000
vt 0.6534 0.6113 0.0000
vt 0.6533 0.6067 0.0000
vt 0.6532 0.6044 0.0000
vt 0.6535 0.6111 0.0000
vt 0.6533 0.6064 0.0000
vt 0.6532 0.6042 0.0000
vt 0.6533 0.6061 0.0000
vt 0.6535 0.6105 0.0000
vt 0.6536 0.6109 0.0000
vt 0.6531 0.6016 0.0000
vt 0.6531 0.6058 0.0000
vt 0.6533 0.6102 0.0000
vt 0.6527 0.6012 0.0000
vt 0.6531 0.6100 0.0000
vt 0.6524 0.6011 0.0000
vt 0.6528 0.6098 0.0000
vt 0.6521 0.6010 0.0000
vt 0.6525 0.6098 0.0000
vt 0.6518 0.6011 0.0000
vt 0.6522 0.6099 0.0000
vt 0.6516 0.6012 0.0000
vt 0.6520 0.6100 0.0000
vt 0.6516 0.6059 0.0000
vt 0.6514 0.6015 0.0000
vt 0.6518 0.6103 0.0000
vt 0.6514 0.6062 0.0000
vt 0.6513 0.6039 0.0000
vt 0.6517 0.6106 0.0000
vt 0.6514 0.6065 0.0000
vt 0.6513 0.6042 0.0000
vt 0.6515 0.6067 0.0000
vt 0.6517 0.6112 0.0000
vt 0.6516 0.6110 0.0000
vt 0.6513 0.6023 0.0000
vt 0.6516 0.6070 0.0000
vt 0.6518 0.6114 0.0000
vt 0.6516 0.6027 0.0000
vt 0.6520 0.6115 0.0000
vt 0.6519 0.6029 0.0000
vt 0.6523 0.6116 0.0000
vt 0.6522 0.6029 0.0000
vt 0.6526 0.6117 0.0000
vt 0.6522 0.6020 0.0000
vt 0.6531 0.6022 0.0000
vt 0.6531 0.6019 0.0000
vt 0.6529 0.6014 0.0000
vt 0.6512 0.6017 0.0000
vt 0.6512 0.6020 0.0000
vt 0.6514 0.6025 0.0000
vt 0.4442 0.7322 0.0000
vt 0.4447 0.7319 0.0000
vt 0.4448 0.7333 0.0000
vt 0.4451 0.7318 0.0000
vt 0.4455 0.7318 0.0000
vt 0.4458 0.7320 0.0000
vt 0.4463 0.7324 0.0000
vt 0.4466 0.7330 0.0000
vt 0.4467 0.7335 0.0000
vt 0.4466 0.7341 0.0000
vt 0.4464 0.7345 0.0000
vt 0.4460 0.7349 0.0000
vt 0.4455 0.7351 0.0000
vt 0.4449 0.7351 0.0000
vt 0.4443 0.7349 0.0000
vt 0.4438 0.7346 0.0000
vt 0.4435 0.7343 0.0000
vt 0.4434 0.7339 0.0000
vt 0.4434 0.7335 0.0000
vt 0.4436 0.7330 0.0000
vt 0.4439 0.7325 0.0000
vt 0.4468 0.7370 0.0000
vt 0.4465 0.7367 0.0000
vt 0.4473 0.7373 0.0000
vt 0.4479 0.7374 0.0000
vt 0.4484 0.7374 0.0000
vt 0.4489 0.7372 0.0000
vt 0.4493 0.7369 0.0000
vt 0.4496 0.7364 0.0000
vt 0.4497 0.7359 0.0000
vt 0.4495 0.7353 0.0000
vt 0.4493 0.7348 0.0000
vt 0.4489 0.7344 0.0000
vt 0.4485 0.7342 0.0000
vt 0.4481 0.7341 0.0000
vt 0.4476 0.7342 0.0000
vt 0.4472 0.7345 0.0000
vt 0.4468 0.7349 0.0000
vt 0.4465 0.7353 0.0000
vt 0.4464 0.7358 0.0000
vt 0.4464 0.7363 0.0000
# 192 texture coords

o Brazos
g Brazos
usemtl 01___Default
s 1
f 1/1/1 2/2/2 3/3/3 
f 2/2/2 1/1/1 4/4/4 
s 2
f 3/3/3 2/2/2 5/5/5 
f 6/6/6 5/5/5 2/2/2 
s 1
f 7/7/7 5/5/5 8/8/8 
f 6/6/6 9/9/9 5/5/5 
s 2
f 10/10/10 8/8/8 11/11/11 
f 9/9/9 12/12/11 8/8/8 
s 1
f 11/11/11 12/12/11 13/13/12 
f 14/14/13 15/15/11 11/11/11 
s 2
f 13/13/12 16/16/14 17/17/15 
f 18/18/16 14/14/13 13/13/12 
s 1
f 17/17/15 19/19/17 20/20/18 
f 20/20/18 18/18/16 17/17/15 
s 2
f 19/19/17 21/21/19 22/22/20 
f 22/22/20 20/20/18 19/19/17 
s 1
f 21/21/19 23/23/21 24/24/21 
f 24/24/21 22/22/20 21/21/19 
s 2
f 24/24/21 25/25/22 26/26/23 
f 25/25/22 24/24/21 23/23/21 
s 1
f 26/26/23 27/27/24 28/28/25 
f 27/27/24 26/26/23 25/25/22 
s 2
f 28/28/25 27/27/24 29/29/26 
f 30/30/27 29/29/26 27/27/24 
s 1
f 31/31/28 29/29/26 32/32/29 
f 30/30/27 33/33/30 29/29/26 
s 2
f 34/34/31 32/32/29 35/35/32 
f 33/33/30 36/36/32 32/32/29 
s 1
f 35/35/32 36/36/32 37/37/33 
f 38/38/34 39/39/32 35/35/32 
s 2
f 37/37/33 40/40/35 41/41/36 
f 42/42/37 38/38/34 37/37/33 
s 1
f 41/41/36 43/43/38 44/44/39 
f 44/44/39 42/42/37 41/41/36 
s 2
f 43/43/38 45/45/40 46/46/41 
f 46/46/41 44/44/39 43/43/38 
s 1
f 45/45/40 47/47/42 48/48/42 
f 48/48/42 46/46/41 45/45/40 
s 2
f 48/48/42 4/4/4 1/1/1 
f 4/4/4 48/48/42 47/47/42 
s 4
f 2/2/43 4/4/43 49/49/43 
s 8
f 6/6/43 2/2/43 49/49/43 
s 16
f 50/50/43 6/6/43 49/49/43 
s 32
f 51/51/43 50/50/43 49/49/43 
s 64
f 16/16/43 51/51/43 49/49/43 
s 128
f 52/52/43 16/16/43 49/49/43 
s 256
f 19/19/43 52/52/43 49/49/43 
s 512
f 21/21/43 19/19/43 49/49/43 
s 1024
f 23/23/43 21/21/43 49/49/43 
s 2048
f 25/25/43 23/23/43 49/49/43 
s 4096
f 27/27/43 25/25/43 49/49/43 
s 8192
f 30/30/43 27/27/43 49/49/43 
s 16384
f 53/53/43 30/30/43 49/49/43 
s 32768
f 54/54/43 53/53/43 49/49/43 
s 65536
f 40/40/43 54/54/43 49/49/43 
s 131072
f 55/55/43 40/40/43 49/49/43 
s 262144
f 43/43/43 55/55/43 49/49/43 
s 524288
f 45/45/43 43/43/43 49/49/43 
s 1048576
f 47/47/43 45/45/43 49/49/43 
s 2097152
f 4/4/43 47/47/43 49/49/43 
s 1
f 56/56/44 57/57/44 58/58/45 
s 2
f 57/57/44 59/59/44 58/58/45 
s 4
f 59/59/44 60/60/44 58/58/45 
s 8
f 60/60/44 61/61/45 58/58/45 
s 16
f 61/61/45 62/62/46 58/58/45 
s 32
f 62/62/46 63/63/46 58/58/45 
s 64
f 63/63/46 64/64/46 58/58/45 
s 128
f 64/64/46 65/65/46 58/58/45 
s 256
f 65/65/46 66/66/46 58/58/45 
s 512
f 66/66/46 67/67/46 58/58/45 
s 1024
f 67/67/46 68/68/46 58/58/45 
s 2048
f 68/68/46 69/69/46 58/58/45 
s 4096
f 69/69/46 70/70/46 58/58/45 
s 8192
f 70/70/46 71/71/45 58/58/45 
s 16384
f 71/71/45 72/72/44 58/58/45 
s 32768
f 72/72/44 73/73/44 58/58/45 
s 65536
f 73/73/44 74/74/44 58/58/45 
s 131072
f 74/74/44 75/75/44 58/58/45 
s 262144
f 75/75/44 76/76/44 58/58/45 
s 524288
f 76/76/44 56/56/44 58/58/45 
s 4
f 39/77/32 38/78/34 72/72/47 
f 72/72/47 71/71/32 39/77/32 
s 8
f 70/70/48 39/77/32 71/71/32 
f 39/77/32 70/70/48 34/79/31 
s 4
f 69/69/49 34/79/31 70/70/48 
f 34/79/31 69/69/49 31/80/28 
s 8
f 68/68/50 31/80/28 69/69/49 
f 31/80/28 68/68/50 28/81/25 
s 4
f 67/67/51 28/81/25 68/68/50 
f 28/81/25 67/67/51 26/82/23 
s 8
f 66/66/21 26/82/23 67/67/51 
f 26/82/23 66/66/21 24/83/21 
s 4
f 22/84/20 24/83/21 66/66/21 
f 66/66/21 65/65/52 22/84/20 
s 8
f 20/85/18 22/84/20 65/65/52 
f 65/65/52 64/64/53 20/85/18 
s 4
f 18/86/16 20/85/18 64/64/53 
f 64/64/53 63/63/54 18/86/16 
s 8
f 14/87/13 18/86/16 63/63/54 
f 63/63/54 62/62/55 14/87/13 
s 4
f 15/88/11 14/87/13 62/62/55 
f 62/62/55 61/61/11 15/88/11 
s 32
f 60/60/56 15/88/11 61/61/11 
f 15/88/11 60/60/56 10/89/10 
s 16
f 59/59/57 10/89/10 60/60/56 
f 10/89/10 59/59/57 7/90/7 
s 8
f 57/57/58 7/90/7 59/59/57 
f 7/90/7 57/57/58 3/91/3 
s 4
f 56/56/59 3/91/3 57/57/58 
f 3/91/3 56/56/59 1/92/1 
s 8
f 76/76/42 1/92/1 56/56/59 
f 1/92/1 76/76/42 48/93/42 
s 4
f 46/94/41 48/93/42 76/76/42 
f 76/76/42 75/75/60 46/94/41 
s 8
f 44/95/39 46/94/41 75/75/60 
f 75/75/60 74/74/61 44/95/39 
s 4
f 42/96/37 44/95/39 74/74/61 
f 74/74/61 73/73/62 42/96/37 
s 8
f 38/78/34 42/96/37 73/73/62 
f 73/73/62 72/72/47 38/78/34 
s 2
f 34/34/31 35/35/32 39/39/32 
s 1
f 40/40/35 37/37/33 36/36/32 
f 35/35/32 37/37/33 38/38/34 
s 2
f 55/55/63 41/41/36 40/40/35 
f 37/37/33 41/41/36 42/42/37 
s 1
f 43/43/38 41/41/36 55/55/63 
s 2
f 36/36/32 33/33/30 54/54/32 
s 1
f 31/31/28 32/32/29 34/34/31 
s 2
f 28/28/25 29/29/26 31/31/28 
s 1
f 33/33/30 30/30/27 53/53/64 
f 36/36/32 54/54/32 40/40/35 
s 2
f 36/36/32 35/35/32 32/32/29 
f 53/53/64 54/54/32 33/33/30 
s 1
f 33/33/30 32/32/29 29/29/26 
s 2
f 10/10/10 11/11/11 15/15/11 
s 1
f 16/16/14 13/13/12 12/12/11 
f 11/11/11 13/13/12 14/14/13 
s 2
f 52/52/65 17/17/15 16/16/14 
f 13/13/12 17/17/15 18/18/16 
s 1
f 19/19/17 17/17/15 52/52/65 
s 2
f 12/12/11 9/9/9 51/51/11 
s 1
f 7/7/7 8/8/8 10/10/10 
s 2
f 3/3/3 5/5/5 7/7/7 
s 1
f 9/9/9 6/6/6 50/50/66 
f 12/12/11 51/51/11 16/16/14 
s 2
f 12/12/11 11/11/11 8/8/8 
f 50/50/66 51/51/11 9/9/9 
s 1
f 9/9/9 8/8/8 5/5/5 
f 77/97/67 78/98/68 79/99/69 
f 78/98/68 77/97/67 80/100/70 
s 2
f 79/99/69 78/98/68 81/101/71 
f 82/102/72 81/101/71 78/98/68 
s 1
f 83/103/73 81/101/71 84/104/74 
f 82/102/72 85/105/75 81/101/71 
s 2
f 86/106/76 84/104/74 87/107/11 
f 85/105/75 88/108/11 84/104/74 
s 1
f 87/107/11 88/108/11 89/109/77 
f 90/110/78 91/111/11 87/107/11 
s 2
f 89/109/77 92/112/79 93/113/80 
f 94/114/81 90/110/78 89/109/77 
s 1
f 93/113/80 95/115/82 96/116/83 
f 96/116/83 94/114/81 93/113/80 
s 2
f 95/115/82 97/117/84 98/118/85 
f 98/118/85 96/116/83 95/115/82 
s 1
f 97/117/84 99/119/86 100/120/86 
f 100/120/86 98/118/85 97/117/84 
s 2
f 100/120/86 101/121/87 102/122/88 
f 101/121/87 100/120/86 99/119/86 
s 1
f 102/122/88 103/123/89 104/124/90 
f 103/123/89 102/122/88 101/121/87 
s 2
f 104/124/90 103/123/89 105/125/91 
f 106/126/92 105/125/91 103/123/89 
s 1
f 107/127/93 105/125/91 108/128/94 
f 106/126/92 109/129/95 105/125/91 
s 2
f 110/130/96 108/128/94 111/131/97 
f 109/129/95 112/132/97 108/128/94 
s 1
f 111/131/97 112/132/97 113/133/98 
f 114/134/99 115/135/97 111/131/97 
s 2
f 113/133/98 116/136/100 117/137/101 
f 118/138/102 114/134/99 113/133/98 
s 1
f 117/137/101 119/139/103 120/140/104 
f 120/140/104 118/138/102 117/137/101 
s 2
f 119/139/103 121/141/105 122/142/106 
f 122/142/106 120/140/104 119/139/103 
s 1
f 121/141/105 123/143/107 124/144/107 
f 124/144/107 122/142/106 121/141/105 
s 2
f 124/144/107 80/100/70 77/97/67 
f 80/100/70 124/144/107 123/143/107 
s 4
f 78/98/108 80/100/108 125/145/108 
s 8
f 82/102/108 78/98/108 125/145/108 
s 16
f 126/146/108 82/102/108 125/145/108 
s 32
f 127/147/108 126/146/108 125/145/108 
s 64
f 92/112/108 127/147/108 125/145/108 
s 128
f 128/148/108 92/112/108 125/145/108 
s 256
f 95/115/108 128/148/108 125/145/108 
s 512
f 97/117/108 95/115/108 125/145/108 
s 1024
f 99/119/108 97/117/108 125/145/108 
s 2048
f 101/121/108 99/119/108 125/145/108 
s 4096
f 103/123/108 101/121/108 125/145/108 
s 8192
f 106/126/108 103/123/108 125/145/108 
s 16384
f 129/149/108 106/126/108 125/145/108 
s 32768
f 130/150/108 129/149/108 125/145/108 
s 65536
f 116/136/108 130/150/108 125/145/108 
s 131072
f 131/151/108 116/136/108 125/145/108 
s 262144
f 119/139/108 131/151/108 125/145/108 
s 524288
f 121/141/108 119/139/108 125/145/108 
s 1048576
f 123/143/108 121/141/108 125/145/108 
s 2097152
f 80/100/108 123/143/108 125/145/108 
s 1
f 132/152/109 133/153/109 134/154/110 
s 2
f 133/153/109 135/155/109 134/154/110 
s 4
f 135/155/109 136/156/109 134/154/110 
s 8
f 136/156/109 137/157/110 134/154/110 
s 16
f 137/157/110 138/158/111 134/154/110 
s 32
f 138/158/111 139/159/111 134/154/110 
s 64
f 139/159/111 140/160/111 134/154/110 
s 128
f 140/160/111 141/161/111 134/154/110 
s 256
f 141/161/111 142/162/111 134/154/110 
s 512
f 142/162/111 143/163/111 134/154/110 
s 1024
f 143/163/111 144/164/111 134/154/110 
s 2048
f 144/164/111 145/165/111 134/154/110 
s 4096
f 145/165/111 146/166/111 134/154/110 
s 8192
f 146/166/111 147/167/110 134/154/110 
s 16384
f 147/167/110 148/168/109 134/154/110 
s 32768
f 148/168/109 149/169/109 134/154/110 
s 65536
f 149/169/109 150/170/109 134/154/110 
s 131072
f 150/170/109 151/171/109 134/154/110 
s 262144
f 151/171/109 152/172/109 134/154/110 
s 524288
f 152/172/109 132/152/109 134/154/110 
s 4
f 115/173/97 114/174/99 148/168/112 
f 148/168/112 147/167/97 115/173/97 
s 8
f 146/166/113 115/173/97 147/167/97 
f 115/173/97 146/166/113 110/175/96 
s 4
f 145/165/114 110/175/96 146/166/113 
f 110/175/96 145/165/114 107/176/93 
s 8
f 144/164/115 107/176/93 145/165/114 
f 107/176/93 144/164/115 104/177/90 
s 4
f 143/163/116 104/177/90 144/164/115 
f 104/177/90 143/163/116 102/178/88 
s 8
f 142/162/86 102/178/88 143/163/116 
f 102/178/88 142/162/86 100/179/86 
s 4
f 98/180/85 100/179/86 142/162/86 
f 142/162/86 141/161/117 98/180/85 
s 8
f 96/181/83 98/180/85 141/161/117 
f 141/161/117 140/160/118 96/181/83 
s 4
f 94/182/81 96/181/83 140/160/118 
f 140/160/118 139/159/119 94/182/81 
s 8
f 90/183/78 94/182/81 139/159/119 
f 139/159/119 138/158/120 90/183/78 
s 4
f 91/184/11 90/183/78 138/158/120 
f 138/158/120 137/157/11 91/184/11 
s 32
f 136/156/121 91/184/11 137/157/11 
f 91/184/11 136/156/121 86/185/76 
s 16
f 135/155/122 86/185/76 136/156/121 
f 86/185/76 135/155/122 83/186/73 
s 8
f 133/153/123 83/186/73 135/155/122 
f 83/186/73 133/153/123 79/187/69 
s 4
f 132/152/124 79/187/69 133/153/123 
f 79/187/69 132/152/124 77/188/67 
s 8
f 152/172/107 77/188/67 132/152/124 
f 77/188/67 152/172/107 124/189/107 
s 4
f 122/190/106 124/189/107 152/172/107 
f 152/172/107 151/171/125 122/190/106 
s 8
f 120/191/104 122/190/106 151/171/125 
f 151/171/125 150/170/126 120/191/104 
s 4
f 118/192/102 120/191/104 150/170/126 
f 150/170/126 149/169/127 118/192/102 
s 8
f 114/174/99 118/192/102 149/169/127 
f 149/169/127 148/168/112 114/174/99 
s 2
f 110/130/96 111/131/97 115/135/97 
s 1
f 116/136/100 113/133/98 112/132/97 
f 111/131/97 113/133/98 114/134/99 
s 2
f 131/151/128 117/137/101 116/136/100 
f 113/133/98 117/137/101 118/138/102 
s 1
f 119/139/103 117/137/101 131/151/128 
s 2
f 112/132/97 109/129/95 130/150/97 
s 1
f 107/127/93 108/128/94 110/130/96 
s 2
f 104/124/90 105/125/91 107/127/93 
s 1
f 109/129/95 106/126/92 129/149/129 
f 112/132/97 130/150/97 116/136/100 
s 2
f 112/132/97 111/131/97 108/128/94 
f 129/149/129 130/150/97 109/129/95 
s 1
f 109/129/95 108/128/94 105/125/91 
s 2
f 86/106/76 87/107/11 91/111/11 
s 1
f 92/112/79 89/109/77 88/108/11 
f 87/107/11 89/109/77 90/110/78 
s 2
f 128/148/130 93/113/80 92/112/79 
f 89/109/77 93/113/80 94/114/81 
s 1
f 95/115/82 93/113/80 128/148/130 
s 2
f 88/108/11 85/105/75 127/147/11 
s 1
f 83/103/73 84/104/74 86/106/76 
s 2
f 79/99/69 81/101/71 83/103/73 
s 1
f 85/105/75 82/102/72 126/146/131 
f 88/108/11 127/147/11 92/112/79 
s 2
f 88/108/11 87/107/11 84/104/74 
f 126/146/131 127/147/11 85/105/75 
s 1
f 85/105/75 84/104/74 81/101/71 
# 296 faces

