# 3ds Max Wavefront OBJ Exporter v0.99 - (c)2007 guruware
# File Created: 06.05.2025 03:16:01

mtllib BrazoDerechoBMO_obj.mtl

#
# object Brazo_Derecho
#

v  0.0053 -0.2820 0.0207
v  0.0096 -0.1184 -0.0000
v  -0.0006 -0.0309 0.0300
v  -0.0036 -0.2515 0.0347
v  -0.0259 -0.0123 0.0394
v  0.0011 0.0424 0.0307
v  -0.0243 0.0424 0.0395
v  -0.0500 -0.0340 -0.0296
v  -0.0478 0.0424 -0.0292
v  -0.0243 0.0424 -0.0395
v  -0.0259 -0.0123 -0.0394
v  0.0053 -0.2820 -0.0207
v  -0.0036 -0.2515 -0.0347
v  -0.0006 -0.0309 -0.0300
v  0.0058 -0.2985 -0.0000
v  -0.0019 -0.3386 -0.0131
v  -0.0019 -0.3386 0.0131
v  -0.0259 -0.2423 -0.0406
v  0.0011 0.0424 -0.0307
v  0.0106 0.0423 -0.0000
v  -0.0431 0.2152 -0.0284
v  -0.0454 0.1309 -0.0288
v  -0.0563 0.1309 -0.0000
v  -0.0531 0.1994 -0.0000
v  -0.0502 -0.2517 -0.0347
v  -0.0620 -0.2821 -0.0207
v  -0.0637 -0.1188 -0.0000
v  -0.0201 0.2286 -0.0397
v  -0.0221 0.1309 -0.0396
v  -0.0500 -0.0340 0.0296
v  -0.0620 -0.2821 0.0207
v  -0.0502 -0.2517 0.0347
v  -0.0628 -0.2986 -0.0000
v  -0.0542 -0.3388 0.0131
v  -0.0542 -0.3388 -0.0131
v  -0.0259 -0.2423 0.0406
v  -0.0478 0.0424 0.0292
v  -0.0595 0.0423 -0.0000
v  -0.0285 -0.3600 0.0141
v  -0.0109 -0.3710 0.0187
v  -0.0310 -0.3741 0.0157
v  -0.0510 -0.3711 0.0187
v  -0.0349 -0.3956 0.0197
v  -0.0488 -0.3917 0.0213
v  -0.0199 -0.3917 0.0213
v  -0.0201 0.2286 0.0397
v  0.0048 0.2472 0.0324
v  0.0044 0.3607 0.0397
v  -0.0184 0.3534 0.0389
v  -0.0393 0.3482 0.0272
v  -0.0431 0.2152 0.0284
v  -0.0117 0.3943 0.0272
v  -0.0274 0.3853 0.0213
v  0.0063 0.4000 0.0284
v  -0.0504 -0.3607 0.0370
v  -0.0308 -0.3599 0.0407
v  -0.0112 -0.3606 0.0370
v  -0.0355 -0.3956 0.0370
v  -0.0202 -0.3917 0.0355
v  -0.0497 -0.3917 0.0355
v  -0.0523 -0.3763 0.0094
v  -0.0320 -0.3794 0.0126
v  -0.0113 -0.3763 0.0094
v  -0.0359 -0.4045 0.0086
v  -0.0203 -0.3999 0.0071
v  -0.0504 -0.3999 0.0071
v  -0.0178 -0.4045 -0.0000
v  -0.0361 -0.4140 -0.0000
v  -0.0359 -0.4045 -0.0087
v  -0.0203 -0.3999 -0.0071
v  -0.0537 -0.4045 -0.0000
v  -0.0504 -0.3999 -0.0071
v  -0.0523 -0.3763 -0.0094
v  -0.0599 -0.3723 -0.0000
v  -0.0036 -0.3722 -0.0000
v  -0.0113 -0.3763 -0.0094
v  -0.0320 -0.3794 -0.0126
v  -0.0285 -0.3600 -0.0141
v  -0.0177 -0.3956 0.0284
v  -0.0359 -0.4038 0.0284
v  -0.0524 -0.3956 0.0284
v  -0.0177 -0.3956 -0.0284
v  -0.0359 -0.4038 -0.0284
v  -0.0355 -0.3956 -0.0370
v  -0.0202 -0.3917 -0.0355
v  -0.0524 -0.3956 -0.0284
v  -0.0497 -0.3917 -0.0355
v  -0.0349 -0.3956 -0.0197
v  -0.0488 -0.3917 -0.0213
v  -0.0199 -0.3917 -0.0213
v  -0.0112 -0.3606 -0.0370
v  -0.0308 -0.3599 -0.0407
v  -0.0504 -0.3607 -0.0370
v  -0.0034 -0.3649 0.0274
v  -0.0582 -0.3650 -0.0274
v  -0.0510 -0.3711 -0.0187
v  -0.0310 -0.3741 -0.0157
v  -0.0109 -0.3710 -0.0187
v  -0.0582 -0.3650 0.0274
v  -0.0034 -0.3649 -0.0274
v  -0.0287 0.3890 -0.0000
v  -0.0097 0.4044 -0.0000
v  -0.0117 0.3943 -0.0272
v  -0.0274 0.3853 -0.0213
v  0.0072 0.4112 -0.0000
v  0.0063 0.4000 -0.0284
v  -0.0393 0.3482 -0.0272
v  -0.0184 0.3534 -0.0389
v  0.0044 0.3607 -0.0397
v  0.0048 0.2472 -0.0324
v  -0.0468 0.3457 -0.0000
v  0.0448 0.4023 0.0284
v  0.0448 0.4140 -0.0000
v  0.0292 0.4140 -0.0000
v  0.0292 0.4023 0.0284
v  0.0448 0.4023 -0.0284
v  0.0292 0.4023 -0.0284
v  0.0637 0.4140 -0.0000
v  0.0637 0.4023 -0.0284
v  0.0637 0.4023 0.0284
v  0.0448 0.3712 0.0390
v  0.0292 0.3712 0.0390
v  0.0292 0.3402 0.0284
v  0.0448 0.3402 0.0284
v  0.0637 0.3712 0.0390
v  0.0637 0.3402 0.0284
v  0.0448 0.3712 -0.0390
v  0.0292 0.3712 -0.0390
v  0.0448 0.3402 -0.0284
v  0.0292 0.3402 -0.0284
v  0.0637 0.3712 -0.0390
v  0.0637 0.3402 -0.0284
v  0.0448 0.3285 -0.0000
v  0.0292 0.3285 -0.0000
v  0.0637 0.3285 -0.0000
v  0.0184 0.3302 -0.0288
v  0.0190 0.3128 -0.0000
v  0.0122 0.1961 -0.0000
v  0.0184 0.3302 0.0288
v  0.0184 0.4020 -0.0284
v  0.0182 0.3694 -0.0391
v  0.0182 0.3694 0.0391
v  0.0184 0.4020 0.0284
v  0.0185 0.4136 -0.0000
v  -0.0454 0.1309 0.0288
v  -0.0221 0.1309 0.0396
v  0.0114 0.1309 -0.0000
v  0.0029 0.1309 -0.0315
v  0.0029 0.1309 0.0315
# 149 vertices

vn 0.9455 -0.0448 0.3226
vn 1.0000 0.0034 -0.0000
vn 0.7039 -0.0040 0.7103
vn 0.6461 0.0015 0.7633
vn -0.0284 0.0036 0.9996
vn 0.7159 -0.0149 0.6980
vn -0.0414 -0.0002 0.9991
vn -0.6959 0.0215 -0.7178
vn -0.7217 0.0222 -0.6918
vn -0.0414 -0.0002 -0.9991
vn -0.0284 0.0036 -0.9996
vn 0.9455 -0.0448 -0.3226
vn 0.6461 0.0015 -0.7633
vn 0.7039 -0.0040 -0.7103
vn 0.9981 -0.0610 -0.0000
vn 0.9799 -0.1924 -0.0535
vn 0.9799 -0.1924 0.0535
vn 0.0027 0.0104 -0.9999
vn 0.7159 -0.0149 -0.6980
vn 0.9999 -0.0141 -0.0000
vn -0.7593 0.0265 -0.6502
vn -0.7349 0.0242 -0.6777
vn -0.9994 0.0349 -0.0000
vn -0.6147 0.0216 -0.7885
vn -0.9438 -0.0136 -0.3303
vn -0.9996 0.0268 -0.0000
vn -0.1080 0.0000 -0.9942
vn -0.0611 0.0006 -0.9981
vn -0.6959 0.0215 0.7178
vn -0.9438 -0.0136 0.3303
vn -0.6147 0.0216 0.7885
vn -0.9991 -0.0415 -0.0000
vn -0.9923 -0.1153 0.0449
vn -0.9923 -0.1153 -0.0449
vn 0.0027 0.0104 0.9999
vn -0.7217 0.0222 0.6918
vn -0.9995 0.0302 -0.0000
vn 0.1265 -0.9918 0.0204
vn 0.5922 -0.2982 -0.7486
vn 0.0066 -0.1759 -0.9844
vn -0.5536 -0.1630 -0.8167
vn -0.0042 -0.5272 -0.8497
vn -0.4920 -0.3703 -0.7879
vn 0.4626 -0.4732 -0.7497
vn -0.1080 0.0000 0.9942
vn 0.6793 -0.0620 0.7313
vn 0.1390 0.0992 0.9853
vn -0.2421 0.1436 0.9596
vn -0.7865 0.1825 0.5901
vn -0.7593 0.0265 0.6502
vn -0.4062 0.6294 0.6624
vn -0.7213 0.5109 0.4676
vn -0.2082 0.6681 0.7143
vn -0.5272 -0.0294 0.8493
vn 0.0050 -0.0412 0.9991
vn 0.5311 -0.1076 0.8404
vn -0.0087 -0.4879 0.8729
vn 0.4365 -0.3976 0.8071
vn -0.5030 -0.3192 0.8032
vn -0.5424 -0.1128 0.8325
vn 0.0043 -0.1271 0.9919
vn 0.5737 -0.2395 0.7833
vn 0.4588 -0.4173 0.7844
vn -0.4967 -0.3294 0.8030
vn 0.6960 -0.7181 -0.0000
vn -0.0131 -0.9999 -0.0000
vn -0.0101 -0.4970 -0.8677
vn 0.4588 -0.4173 -0.7844
vn -0.7754 -0.6315 -0.0000
vn -0.4967 -0.3294 -0.8030
vn -0.5424 -0.1128 -0.8325
vn -0.9948 -0.1019 -0.0000
vn 0.9680 -0.2511 -0.0000
vn 0.5737 -0.2395 -0.7833
vn 0.0043 -0.1271 -0.9919
vn 0.1265 -0.9918 -0.0204
vn 0.6766 -0.7342 0.0560
vn -0.0272 -0.9996 -0.0031
vn -0.7711 -0.6365 0.0180
vn 0.6766 -0.7342 -0.0560
vn -0.0272 -0.9996 0.0031
vn 0.4365 -0.3976 -0.8071
vn -0.7711 -0.6365 -0.0180
vn -0.5030 -0.3192 -0.8032
vn -0.0042 -0.5272 0.8497
vn -0.4920 -0.3703 0.7879
vn 0.4626 -0.4732 0.7497
vn 0.5312 -0.1076 -0.8404
vn 0.0050 -0.0412 -0.9991
vn -0.5272 -0.0294 -0.8493
vn 0.9540 -0.2325 0.1893
vn -0.9919 -0.0994 -0.0789
vn -0.5536 -0.1630 0.8167
vn 0.0066 -0.1759 0.9844
vn 0.5922 -0.2982 0.7486
vn -0.9919 -0.0994 0.0789
vn 0.9540 -0.2325 -0.1893
vn -0.7863 0.6178 -0.0000
vn -0.4605 0.8877 -0.0000
vn -0.4062 0.6294 -0.6624
vn -0.7213 0.5109 -0.4676
vn -0.2624 0.9650 -0.0000
vn -0.2082 0.6681 -0.7143
vn -0.7865 0.1825 -0.5901
vn -0.2421 0.1436 -0.9596
vn 0.1390 0.0992 -0.9853
vn 0.6793 -0.0620 -0.7313
vn -0.9820 0.1888 -0.0000
vn 0.0000 0.6857 0.7279
vn 0.0000 1.0000 -0.0000
vn -0.0148 0.9999 -0.0000
vn -0.0150 0.6866 0.7269
vn 0.0000 0.6857 -0.7279
vn -0.0150 0.6866 -0.7269
vn 0.0000 0.0000 1.0000
vn 0.0339 0.0260 0.9991
vn 0.2347 -0.5751 0.7837
vn 0.0000 -0.6857 0.7279
vn 0.0000 0.0000 -1.0000
vn 0.0339 0.0260 -0.9991
vn 0.0000 -0.6857 -0.7279
vn 0.2347 -0.5751 -0.7837
vn 0.0051 -1.0000 -0.0000
vn 0.4763 -0.8793 -0.0000
vn 0.6578 -0.2955 -0.6928
vn 0.9567 -0.2911 -0.0000
vn 0.9995 -0.0315 -0.0000
vn 0.6578 -0.2955 0.6928
vn -0.0916 0.6880 -0.7199
vn 0.0915 0.0812 -0.9925
vn 0.0915 0.0812 0.9925
vn -0.0916 0.6880 0.7200
vn -0.1069 0.9943 -0.0000
vn -0.7349 0.0242 0.6777
vn -0.0611 0.0006 0.9981
vn 0.7228 -0.0149 -0.6909
vn 0.7228 -0.0149 0.6909
# 137 vertex normals

vt 0.3319 0.7848 0.0000
vt 0.3261 0.8077 0.0000
vt 0.3345 0.8230 0.0000
vt 0.3358 0.7914 0.0000
vt 0.3371 0.8318 0.0000
vt 0.3347 0.8333 0.0000
vt 0.3371 0.8394 0.0000
vt 0.3177 0.8343 0.0000
vt 0.3178 0.8450 0.0000
vt 0.3150 0.8393 0.0000
vt 0.3150 0.8317 0.0000
vt 0.3203 0.7847 0.0000
vt 0.3163 0.7913 0.0000
vt 0.3177 0.8229 0.0000
vt 0.3261 0.7822 0.0000
vt 0.3224 0.7781 0.0000
vt 0.3297 0.7782 0.0000
vt 0.3147 0.7980 0.0000
vt 0.3175 0.8333 0.0000
vt 0.3261 0.8310 0.0000
vt 0.3181 0.8692 0.0000
vt 0.3180 0.8574 0.0000
vt 0.3260 0.8600 0.0000
vt 0.3260 0.8693 0.0000
vt 0.3163 0.8024 0.0000
vt 0.3202 0.8008 0.0000
vt 0.3260 0.8252 0.0000
vt 0.3149 0.8656 0.0000
vt 0.3149 0.8518 0.0000
vt 0.3343 0.8343 0.0000
vt 0.3318 0.8008 0.0000
vt 0.3357 0.8025 0.0000
vt 0.3260 0.7986 0.0000
vt 0.3297 0.7906 0.0000
vt 0.3223 0.7906 0.0000
vt 0.3374 0.7981 0.0000
vt 0.3342 0.8450 0.0000
vt 0.3260 0.8478 0.0000
vt 0.3300 0.7814 0.0000
vt 0.3313 0.7756 0.0000
vt 0.3304 0.7799 0.0000
vt 0.3312 0.7852 0.0000
vt 0.3316 0.7777 0.0000
vt 0.3320 0.7816 0.0000
vt 0.3320 0.7747 0.0000
vt 0.3372 0.8657 0.0000
vt 0.3351 0.8625 0.0000
vt 0.3372 0.8792 0.0000
vt 0.3369 0.8836 0.0000
vt 0.3336 0.8878 0.0000
vt 0.3340 0.8692 0.0000
vt 0.3337 0.8880 0.0000
vt 0.3320 0.8904 0.0000
vt 0.3340 0.8845 0.0000
vt 0.3364 0.7866 0.0000
vt 0.3374 0.7820 0.0000
vt 0.3364 0.7772 0.0000
vt 0.3364 0.7779 0.0000
vt 0.3360 0.7748 0.0000
vt 0.3360 0.7818 0.0000
vt 0.3286 0.7847 0.0000
vt 0.3296 0.7794 0.0000
vt 0.3287 0.7749 0.0000
vt 0.3284 0.7766 0.0000
vt 0.3280 0.7736 0.0000
vt 0.3280 0.7808 0.0000
vt 0.3260 0.7723 0.0000
vt 0.3260 0.7753 0.0000
vt 0.3236 0.7766 0.0000
vt 0.3241 0.7736 0.0000
vt 0.3260 0.7809 0.0000
vt 0.3240 0.7808 0.0000
vt 0.3234 0.7847 0.0000
vt 0.3260 0.7871 0.0000
vt 0.3261 0.7736 0.0000
vt 0.3234 0.7749 0.0000
vt 0.3225 0.7794 0.0000
vt 0.3221 0.7814 0.0000
vt 0.3340 0.7736 0.0000
vt 0.3340 0.7768 0.0000
vt 0.3340 0.7819 0.0000
vt 0.3181 0.7736 0.0000
vt 0.3181 0.7767 0.0000
vt 0.3156 0.7778 0.0000
vt 0.3161 0.7747 0.0000
vt 0.3181 0.7818 0.0000
vt 0.3161 0.7818 0.0000
vt 0.3205 0.7777 0.0000
vt 0.3200 0.7816 0.0000
vt 0.3201 0.7747 0.0000
vt 0.3157 0.7771 0.0000
vt 0.3146 0.7819 0.0000
vt 0.3156 0.7865 0.0000
vt 0.3337 0.7747 0.0000
vt 0.3183 0.7877 0.0000
vt 0.3208 0.7851 0.0000
vt 0.3216 0.7799 0.0000
vt 0.3208 0.7755 0.0000
vt 0.3337 0.7878 0.0000
vt 0.3184 0.7746 0.0000
vt 0.3260 0.8912 0.0000
vt 0.3261 0.8890 0.0000
vt 0.3184 0.8879 0.0000
vt 0.3201 0.8904 0.0000
vt 0.3261 0.8859 0.0000
vt 0.3181 0.8844 0.0000
vt 0.3184 0.8878 0.0000
vt 0.3151 0.8835 0.0000
vt 0.3149 0.8791 0.0000
vt 0.3170 0.8624 0.0000
vt 0.3260 0.8892 0.0000
vt 0.3341 0.8757 0.0000
vt 0.3261 0.8773 0.0000
vt 0.3261 0.8811 0.0000
vt 0.3340 0.8794 0.0000
vt 0.3182 0.8756 0.0000
vt 0.3181 0.8793 0.0000
vt 0.3261 0.8728 0.0000
vt 0.3182 0.8711 0.0000
vt 0.3341 0.8711 0.0000
vt 0.3370 0.8711 0.0000
vt 0.3370 0.8748 0.0000
vt 0.3340 0.8703 0.0000
vt 0.3341 0.8666 0.0000
vt 0.3371 0.8666 0.0000
vt 0.3341 0.8620 0.0000
vt 0.3152 0.8710 0.0000
vt 0.3152 0.8748 0.0000
vt 0.3182 0.8665 0.0000
vt 0.3181 0.8702 0.0000
vt 0.3152 0.8665 0.0000
vt 0.3182 0.8620 0.0000
vt 0.3261 0.8648 0.0000
vt 0.3261 0.8685 0.0000
vt 0.3261 0.8603 0.0000
vt 0.3180 0.8713 0.0000
vt 0.3261 0.8687 0.0000
vt 0.3261 0.8532 0.0000
vt 0.3342 0.8714 0.0000
vt 0.3181 0.8819 0.0000
vt 0.3151 0.8771 0.0000
vt 0.3370 0.8772 0.0000
vt 0.3340 0.8819 0.0000
vt 0.3261 0.8836 0.0000
vt 0.3341 0.8574 0.0000
vt 0.3371 0.8519 0.0000
vt 0.3261 0.8438 0.0000
vt 0.3172 0.8458 0.0000
vt 0.3349 0.8459 0.0000
# 149 texture coords

o Brazo_Derecho
g Brazo_Derecho
usemtl cuerpo_mso
s 1
f 1/1/1 2/2/2 3/3/3 
f 3/3/3 4/4/4 1/1/1 
f 5/5/5 3/3/3 6/6/6 
f 6/6/6 7/7/7 5/5/5 
f 8/8/8 9/9/9 10/10/10 
f 10/10/10 11/11/11 8/8/8 
f 12/12/12 13/13/13 14/14/14 
f 14/14/14 2/2/2 12/12/12 
f 12/12/12 2/2/2 15/15/15 
f 15/15/15 16/16/16 12/12/12 
f 15/15/15 2/2/2 1/1/1 
f 1/1/1 17/17/17 15/15/15 
f 18/18/18 11/11/11 14/14/14 
f 14/14/14 13/13/13 18/18/18 
f 2/2/2 14/14/14 19/19/19 
f 19/19/19 20/20/20 2/2/2 
f 21/21/21 22/22/22 23/23/23 
f 23/23/23 24/24/23 21/21/21 
f 18/18/18 25/25/24 8/8/8 
f 8/8/8 11/11/11 18/18/18 
f 26/26/25 27/27/26 8/8/8 
f 8/8/8 25/25/24 26/26/25 
f 21/21/21 28/28/27 29/29/28 
f 29/29/28 22/22/22 21/21/21 
f 30/30/29 27/27/26 31/31/30 
f 31/31/30 32/32/31 30/30/29 
f 33/33/32 34/34/33 31/31/30 
f 31/31/30 27/27/26 33/33/32 
f 26/26/25 35/35/34 33/33/32 
f 33/33/32 27/27/26 26/26/25 
f 36/36/35 5/5/5 30/30/29 
f 30/30/29 32/32/31 36/36/35 
f 27/27/26 30/30/29 37/37/36 
f 37/37/36 38/38/37 27/27/26 
f 6/6/6 3/3/3 2/2/2 
f 2/2/2 20/20/20 6/6/6 
f 36/36/35 4/4/4 3/3/3 
f 3/3/3 5/5/5 36/36/35 
f 39/39/38 17/17/17 40/40/39 
f 40/40/39 41/41/40 39/39/38 
f 42/42/41 34/34/33 39/39/38 
f 39/39/38 41/41/40 42/42/41 
f 42/42/41 41/41/40 43/43/42 
f 43/43/42 44/44/43 42/42/41 
f 45/45/44 43/43/42 41/41/40 
f 41/41/40 40/40/39 45/45/44 
f 46/46/45 47/47/46 48/48/47 
f 48/48/47 49/49/48 46/46/45 
f 50/50/49 51/51/50 46/46/45 
f 46/46/45 49/49/48 50/50/49 
f 50/50/49 49/49/48 52/52/51 
f 52/52/51 53/53/52 50/50/49 
f 52/52/51 49/49/48 48/48/47 
f 48/48/47 54/54/53 52/52/51 
f 36/36/35 32/32/31 55/55/54 
f 55/55/54 56/56/55 36/36/35 
f 36/36/35 56/56/55 57/57/56 
f 57/57/56 4/4/4 36/36/35 
f 58/58/57 59/59/58 57/57/56 
f 57/57/56 56/56/55 58/58/57 
f 58/58/57 56/56/55 55/55/54 
f 55/55/54 60/60/59 58/58/57 
f 61/61/60 62/62/61 39/39/38 
f 39/39/38 34/34/33 61/61/60 
f 39/39/38 62/62/61 63/63/62 
f 63/63/62 17/17/17 39/39/38 
f 64/64/57 65/65/63 63/63/62 
f 63/63/62 62/62/61 64/64/57 
f 61/61/60 66/66/64 64/64/57 
f 64/64/57 62/62/61 61/61/60 
f 67/67/65 68/68/66 69/69/67 
f 69/69/67 70/70/68 67/67/65 
f 69/69/67 68/68/66 71/71/69 
f 71/71/69 72/72/70 69/69/67 
f 64/64/57 66/66/64 71/71/69 
f 71/71/69 68/68/66 64/64/57 
f 67/67/65 65/65/63 64/64/57 
f 64/64/57 68/68/66 67/67/65 
f 73/73/71 74/74/72 33/33/32 
f 33/33/32 35/35/34 73/73/71 
f 33/33/32 74/74/72 61/61/60 
f 61/61/60 34/34/33 33/33/32 
f 71/71/69 66/66/64 61/61/60 
f 61/61/60 74/74/72 71/71/69 
f 73/73/71 72/72/70 71/71/69 
f 71/71/69 74/74/72 73/73/71 
f 63/63/62 75/75/73 15/15/15 
f 15/15/15 17/17/17 63/63/62 
f 15/15/15 75/75/73 76/76/74 
f 76/76/74 16/16/16 15/15/15 
f 67/67/65 70/70/68 76/76/74 
f 76/76/74 75/75/73 67/67/65 
f 63/63/62 65/65/63 67/67/65 
f 67/67/65 75/75/73 63/63/62 
f 76/76/74 77/77/75 78/78/76 
f 78/78/76 16/16/16 76/76/74 
f 78/78/76 77/77/75 73/73/71 
f 73/73/71 35/35/34 78/78/76 
f 69/69/67 72/72/70 73/73/71 
f 73/73/71 77/77/75 69/69/67 
f 76/76/74 70/70/68 69/69/67 
f 69/69/67 77/77/75 76/76/74 
f 79/79/77 80/80/78 43/43/42 
f 43/43/42 45/45/44 79/79/77 
f 43/43/42 80/80/78 81/81/79 
f 81/81/79 44/44/43 43/43/42 
f 58/58/57 60/60/59 81/81/79 
f 81/81/79 80/80/78 58/58/57 
f 79/79/77 59/59/58 58/58/57 
f 58/58/57 80/80/78 79/79/77 
f 82/82/80 83/83/81 84/84/67 
f 84/84/67 85/85/82 82/82/80 
f 84/84/67 83/83/81 86/86/83 
f 86/86/83 87/87/84 84/84/67 
f 88/88/85 89/89/86 86/86/83 
f 86/86/83 83/83/81 88/88/85 
f 82/82/80 90/90/87 88/88/85 
f 88/88/85 83/83/81 82/82/80 
f 91/91/88 92/92/89 18/18/18 
f 18/18/18 13/13/13 91/91/88 
f 18/18/18 92/92/89 93/93/90 
f 93/93/90 25/25/24 18/18/18 
f 93/93/90 92/92/89 84/84/67 
f 84/84/67 87/87/84 93/93/90 
f 84/84/67 92/92/89 91/91/88 
f 91/91/88 85/85/82 84/84/67 
f 57/57/56 94/94/91 1/1/1 
f 1/1/1 4/4/4 57/57/56 
f 1/1/1 94/94/91 40/40/39 
f 40/40/39 17/17/17 1/1/1 
f 45/45/44 40/40/39 94/94/91 
f 94/94/91 79/79/77 45/45/44 
f 57/57/56 59/59/58 79/79/77 
f 79/79/77 94/94/91 57/57/56 
f 25/25/24 93/93/90 95/95/92 
f 95/95/92 26/26/25 25/25/24 
f 96/96/93 35/35/34 26/26/25 
f 26/26/25 95/95/92 96/96/93 
f 95/95/92 86/86/83 89/89/86 
f 89/89/86 96/96/93 95/95/92 
f 86/86/83 95/95/92 93/93/90 
f 93/93/90 87/87/84 86/86/83 
f 97/97/94 78/78/76 35/35/34 
f 35/35/34 96/96/93 97/97/94 
f 97/97/94 98/98/95 16/16/16 
f 16/16/16 78/78/76 97/97/94 
f 88/88/85 90/90/87 98/98/95 
f 98/98/95 97/97/94 88/88/85 
f 96/96/93 89/89/86 88/88/85 
f 88/88/85 97/97/94 96/96/93 
f 31/31/30 34/34/33 42/42/41 
f 42/42/41 99/99/96 31/31/30 
f 55/55/54 32/32/31 31/31/30 
f 31/31/30 99/99/96 55/55/54 
f 55/55/54 99/99/96 81/81/79 
f 81/81/79 60/60/59 55/55/54 
f 81/81/79 99/99/96 42/42/41 
f 42/42/41 44/44/43 81/81/79 
f 12/12/12 16/16/16 98/98/95 
f 98/98/95 100/100/97 12/12/12 
f 12/12/12 100/100/97 91/91/88 
f 91/91/88 13/13/13 12/12/12 
f 82/82/80 85/85/82 91/91/88 
f 91/91/88 100/100/97 82/82/80 
f 98/98/95 90/90/87 82/82/80 
f 82/82/80 100/100/97 98/98/95 
f 101/101/98 102/102/99 103/103/100 
f 103/103/100 104/104/101 101/101/98 
f 105/105/102 106/106/103 103/103/100 
f 103/103/100 102/102/99 105/105/102 
f 54/54/53 105/105/102 102/102/99 
f 102/102/99 52/52/51 54/54/53 
f 101/101/98 53/53/52 52/52/51 
f 52/52/51 102/102/99 101/101/98 
f 28/28/27 21/21/21 107/107/104 
f 107/107/104 108/108/105 28/28/27 
f 109/109/106 110/110/107 28/28/27 
f 28/28/27 108/108/105 109/109/106 
f 108/108/105 103/103/100 106/106/103 
f 106/106/103 109/109/106 108/108/105 
f 104/104/101 103/103/100 108/108/105 
f 108/108/105 107/107/104 104/104/101 
f 24/24/23 51/51/50 50/50/49 
f 50/50/49 111/111/108 24/24/23 
f 21/21/21 24/24/23 111/111/108 
f 111/111/108 107/107/104 21/21/21 
f 111/111/108 101/101/98 104/104/101 
f 104/104/101 107/107/104 111/111/108 
f 50/50/49 53/53/52 101/101/98 
f 101/101/98 111/111/108 50/50/49 
f 112/112/109 113/113/110 114/114/111 
f 114/114/111 115/115/112 112/112/109 
f 114/114/111 113/113/110 116/116/113 
f 116/116/113 117/117/114 114/114/111 
f 118/118/110 119/119/113 116/116/113 
f 116/116/113 113/113/110 118/118/110 
f 112/112/109 120/120/109 118/118/110 
f 118/118/110 113/113/110 112/112/109 
f 121/121/115 122/122/116 123/123/117 
f 123/123/117 124/124/118 121/121/115 
f 112/112/109 115/115/112 122/122/116 
f 122/122/116 121/121/115 112/112/109 
f 125/125/115 120/120/109 112/112/109 
f 112/112/109 121/121/115 125/125/115 
f 124/124/118 126/126/118 125/125/115 
f 125/125/115 121/121/115 124/124/118 
f 116/116/113 127/127/119 128/128/120 
f 128/128/120 117/117/114 116/116/113 
f 128/128/120 127/127/119 129/129/121 
f 129/129/121 130/130/122 128/128/120 
f 127/127/119 131/131/119 132/132/121 
f 132/132/121 129/129/121 127/127/119 
f 116/116/113 119/119/113 131/131/119 
f 131/131/119 127/127/119 116/116/113 
f 133/133/123 134/134/124 130/130/122 
f 130/130/122 129/129/121 133/133/123 
f 124/124/118 123/123/117 134/134/124 
f 134/134/124 133/133/123 124/124/118 
f 133/133/123 135/135/123 126/126/118 
f 126/126/118 124/124/118 133/133/123 
f 132/132/121 135/135/123 133/133/123 
f 133/133/123 129/129/121 132/132/121 
f 136/136/125 137/137/126 138/138/127 
f 138/138/127 110/110/107 136/136/125 
f 139/139/128 47/47/46 138/138/127 
f 138/138/127 137/137/126 139/139/128 
f 137/137/126 134/134/124 123/123/117 
f 123/123/117 139/139/128 137/137/126 
f 136/136/125 130/130/122 134/134/124 
f 134/134/124 137/137/126 136/136/125 
f 106/106/103 140/140/129 141/141/130 
f 141/141/130 109/109/106 106/106/103 
f 136/136/125 110/110/107 109/109/106 
f 109/109/106 141/141/130 136/136/125 
f 141/141/130 128/128/120 130/130/122 
f 130/130/122 136/136/125 141/141/130 
f 140/140/129 117/117/114 128/128/120 
f 128/128/120 141/141/130 140/140/129 
f 139/139/128 142/142/131 48/48/47 
f 48/48/47 47/47/46 139/139/128 
f 48/48/47 142/142/131 143/143/132 
f 143/143/132 54/54/53 48/48/47 
f 142/142/131 122/122/116 115/115/112 
f 115/115/112 143/143/132 142/142/131 
f 139/139/128 123/123/117 122/122/116 
f 122/122/116 142/142/131 139/139/128 
f 143/143/132 144/144/133 105/105/102 
f 105/105/102 54/54/53 143/143/132 
f 105/105/102 144/144/133 140/140/129 
f 140/140/129 106/106/103 105/105/102 
f 144/144/133 114/114/111 117/117/114 
f 117/117/114 140/140/129 144/144/133 
f 143/143/132 115/115/112 114/114/111 
f 114/114/111 144/144/133 143/143/132 
f 14/14/14 11/11/11 10/10/10 
f 10/10/10 19/19/19 14/14/14 
f 24/24/23 23/23/23 145/145/134 
f 145/145/134 51/51/50 24/24/23 
f 51/51/50 145/145/134 146/146/135 
f 146/146/135 46/46/45 51/51/50 
f 37/37/36 30/30/29 5/5/5 
f 5/5/5 7/7/7 37/37/36 
f 27/27/26 38/38/37 9/9/9 
f 9/9/9 8/8/8 27/27/26 
f 138/138/127 147/147/20 148/148/136 
f 148/148/136 110/110/107 138/138/127 
f 110/110/107 148/148/136 29/29/28 
f 29/29/28 28/28/27 110/110/107 
f 149/149/137 47/47/46 46/46/45 
f 46/46/45 146/146/135 149/149/137 
f 7/7/7 6/6/6 149/149/137 
f 149/149/137 146/146/135 7/7/7 
f 7/7/7 146/146/135 145/145/134 
f 145/145/134 37/37/36 7/7/7 
f 37/37/36 145/145/134 23/23/23 
f 23/23/23 38/38/37 37/37/36 
f 9/9/9 38/38/37 23/23/23 
f 23/23/23 22/22/22 9/9/9 
f 10/10/10 9/9/9 22/22/22 
f 22/22/22 29/29/28 10/10/10 
f 10/10/10 29/29/28 148/148/136 
f 148/148/136 19/19/19 10/10/10 
f 148/148/136 147/147/20 20/20/20 
f 20/20/20 19/19/19 148/148/136 
f 149/149/137 6/6/6 20/20/20 
f 20/20/20 147/147/20 149/149/137 
f 47/47/46 149/149/137 147/147/20 
f 147/147/20 138/138/127 47/47/46 
# 288 faces

