# 3ds Max Wavefront OBJ Exporter v0.99 - (c)2007 guruware
# File Created: 06.05.2025 14:25:26

mtllib brazoI_C.mtl

#
# object brazo_i
#

v  1.6525 -1.5111 0.0038
v  2.1119 -1.0292 -0.2125
v  2.1355 -1.0044 0.0038
v  2.0433 -1.1012 -0.4077
v  1.9364 -1.2133 -0.5625
v  1.8018 -1.3545 -0.6620
v  1.6525 -1.5111 -0.6962
v  1.5033 -1.6677 -0.6620
v  1.3686 -1.8089 -0.5625
v  1.2618 -1.9210 -0.4077
v  1.1932 -1.9930 -0.2125
v  1.1695 -2.0178 0.0038
v  1.1932 -1.9930 0.2201
v  1.2618 -1.9210 0.4152
v  1.3686 -1.8089 0.5701
v  1.5033 -1.6677 0.6695
v  1.6525 -1.5111 0.7038
v  1.8018 -1.3545 0.6695
v  1.9364 -1.2133 0.5701
v  2.0433 -1.1012 0.4152
v  2.1119 -1.0292 0.2201
v  1.8678 -0.7966 -0.2125
v  1.8915 -0.7718 0.0038
v  1.7992 -0.8685 -0.4077
v  1.6924 -0.9806 -0.5625
v  1.5577 -1.1219 -0.6620
v  1.4085 -1.2784 -0.6962
v  1.2592 -1.4350 -0.6620
v  1.1246 -1.5762 -0.5625
v  1.0177 -1.6883 -0.4077
v  0.9491 -1.7603 -0.2125
v  0.9255 -1.7851 0.0038
v  0.9491 -1.7603 0.2201
v  1.0177 -1.6883 0.4152
v  1.1246 -1.5762 0.5701
v  1.2592 -1.4350 0.6695
v  1.4085 -1.2784 0.7038
v  1.5577 -1.1219 0.6695
v  1.6924 -0.9806 0.5701
v  1.7992 -0.8685 0.4152
v  1.8678 -0.7966 0.2201
v  1.6238 -0.5639 -0.2125
v  1.6474 -0.5391 0.0038
v  1.5552 -0.6359 -0.4077
v  1.4483 -0.7480 -0.5625
v  1.3137 -0.8892 -0.6620
v  1.1644 -1.0458 -0.6962
v  1.0151 -1.2023 -0.6620
v  0.8805 -1.3436 -0.5625
v  0.7736 -1.4557 -0.4077
v  0.7050 -1.5276 -0.2125
v  0.6814 -1.5524 0.0038
v  0.7050 -1.5276 0.2201
v  0.7736 -1.4557 0.4152
v  0.8805 -1.3436 0.5701
v  1.0151 -1.2023 0.6695
v  1.1644 -1.0458 0.7038
v  1.3137 -0.8892 0.6695
v  1.4483 -0.7480 0.5701
v  1.5552 -0.6359 0.4152
v  1.6238 -0.5639 0.2201
v  1.3797 -0.3312 -0.2125
v  1.4033 -0.3064 0.0038
v  1.3111 -0.4032 -0.4077
v  1.2042 -0.5153 -0.5625
v  1.0696 -0.6565 -0.6620
v  0.9203 -0.8131 -0.6962
v  0.7711 -0.9697 -0.6620
v  0.6364 -1.1109 -0.5625
v  0.5296 -1.2230 -0.4077
v  0.4610 -1.2950 -0.2125
v  0.4373 -1.3198 0.0038
v  0.4610 -1.2950 0.2201
v  0.5296 -1.2230 0.4152
v  0.6364 -1.1109 0.5701
v  0.7711 -0.9697 0.6695
v  0.9203 -0.8131 0.7038
v  1.0696 -0.6565 0.6695
v  1.2042 -0.5153 0.5701
v  1.3111 -0.4032 0.4152
v  1.3797 -0.3312 0.2201
v  1.1356 -0.0986 -0.2125
v  1.1593 -0.0738 0.0038
v  1.0670 -0.1705 -0.4077
v  0.9602 -0.2826 -0.5625
v  0.8255 -0.4239 -0.6620
v  0.6763 -0.5804 -0.6962
v  0.5270 -0.7370 -0.6620
v  0.3924 -0.8782 -0.5625
v  0.2855 -0.9903 -0.4077
v  0.2169 -1.0623 -0.2125
v  0.1933 -1.0871 0.0038
v  0.2169 -1.0623 0.2201
v  0.2855 -0.9903 0.4152
v  0.3924 -0.8782 0.5701
v  0.5270 -0.7370 0.6695
v  0.6763 -0.5804 0.7038
v  0.8255 -0.4239 0.6695
v  0.9602 -0.2826 0.5701
v  1.0670 -0.1705 0.4152
v  1.1356 -0.0986 0.2201
v  0.8916 0.1341 -0.2125
v  0.9152 0.1589 0.0038
v  0.8230 0.0621 -0.4077
v  0.7161 -0.0500 -0.5625
v  0.5815 -0.1912 -0.6620
v  0.4322 -0.3478 -0.6962
v  0.2830 -0.5043 -0.6620
v  0.1483 -0.6456 -0.5625
v  0.0415 -0.7577 -0.4077
v  -0.0271 -0.8296 -0.2125
v  -0.0508 -0.8544 0.0038
v  -0.0271 -0.8296 0.2201
v  0.0415 -0.7577 0.4152
v  0.1483 -0.6456 0.5701
v  0.2830 -0.5043 0.6695
v  0.4322 -0.3478 0.7038
v  0.5815 -0.1912 0.6695
v  0.7161 -0.0500 0.5701
v  0.8230 0.0621 0.4152
v  0.8916 0.1341 0.2201
v  0.6475 0.3668 -0.2125
v  0.6712 0.3916 0.0038
v  0.5789 0.2948 -0.4077
v  0.4721 0.1827 -0.5625
v  0.3374 0.0415 -0.6620
v  0.1882 -0.1151 -0.6962
v  0.0389 -0.2717 -0.6620
v  -0.0957 -0.4129 -0.5625
v  -0.2026 -0.5250 -0.4077
v  -0.2712 -0.5970 -0.2125
v  -0.2949 -0.6218 0.0038
v  -0.2712 -0.5970 0.2201
v  -0.2026 -0.5250 0.4152
v  -0.0957 -0.4129 0.5701
v  0.0389 -0.2717 0.6695
v  0.1882 -0.1151 0.7038
v  0.3374 0.0415 0.6695
v  0.4721 0.1827 0.5701
v  0.5789 0.2948 0.4152
v  0.6475 0.3668 0.2201
v  0.4035 0.5994 -0.2125
v  0.4271 0.6242 0.0038
v  0.3349 0.5275 -0.4077
v  0.2280 0.4154 -0.5625
v  0.0934 0.2741 -0.6620
v  -0.0559 0.1176 -0.6962
v  -0.2052 -0.0390 -0.6620
v  -0.3398 -0.1802 -0.5625
v  -0.4467 -0.2923 -0.4077
v  -0.5153 -0.3643 -0.2125
v  -0.5389 -0.3891 0.0038
v  -0.5153 -0.3643 0.2201
v  -0.4467 -0.2923 0.4152
v  -0.3398 -0.1802 0.5701
v  -0.2052 -0.0390 0.6695
v  -0.0559 0.1176 0.7038
v  0.0934 0.2741 0.6695
v  0.2280 0.4154 0.5701
v  0.3349 0.5275 0.4152
v  0.4035 0.5994 0.2201
v  0.1594 0.8321 -0.2125
v  0.1830 0.8569 0.0038
v  0.0908 0.7601 -0.4077
v  -0.0161 0.6480 -0.5625
v  -0.1507 0.5068 -0.6620
v  -0.3000 0.3502 -0.6962
v  -0.4492 0.1937 -0.6620
v  -0.5839 0.0524 -0.5625
v  -0.6907 -0.0597 -0.4077
v  -0.7593 -0.1316 -0.2125
v  -0.7830 -0.1564 0.0038
v  -0.7593 -0.1316 0.2201
v  -0.6907 -0.0597 0.4152
v  -0.5839 0.0524 0.5701
v  -0.4492 0.1937 0.6695
v  -0.3000 0.3502 0.7038
v  -0.1507 0.5068 0.6695
v  -0.0161 0.6480 0.5701
v  0.0908 0.7601 0.4152
v  0.1594 0.8321 0.2201
v  -0.3000 0.3502 0.0038
# 182 vertices

vn 0.7238 -0.6900 -0.0000
vn 0.6900 0.7238 -0.0000
vn 0.6562 0.6884 -0.3090
vn 0.5582 0.5856 -0.5878
vn 0.4056 0.4254 -0.8090
vn 0.2132 0.2237 -0.9511
vn -0.0000 -0.0000 -1.0000
vn -0.2132 -0.2237 -0.9511
vn -0.4056 -0.4254 -0.8090
vn -0.5582 -0.5856 -0.5878
vn -0.6562 -0.6884 -0.3090
vn -0.6900 -0.7238 0.0000
vn -0.6562 -0.6884 0.3090
vn -0.5582 -0.5856 0.5878
vn -0.4056 -0.4254 0.8090
vn -0.2132 -0.2237 0.9511
vn 0.0000 0.0000 1.0000
vn 0.2132 0.2237 0.9511
vn 0.4056 0.4254 0.8090
vn 0.5582 0.5856 0.5878
vn 0.6562 0.6884 0.3090
vn -0.7238 0.6900 -0.0000
# 22 vertex normals

vt 0.2573 0.4644 0.0000
vt 0.3167 0.4451 0.0000
vt 0.3197 0.4644 0.0000
vt 0.3078 0.4277 0.0000
vt 0.2940 0.4139 0.0000
vt 0.2766 0.4050 0.0000
vt 0.2573 0.4020 0.0000
vt 0.2380 0.4050 0.0000
vt 0.2206 0.4139 0.0000
vt 0.2068 0.4277 0.0000
vt 0.1979 0.4451 0.0000
vt 0.1949 0.4644 0.0000
vt 0.1979 0.4837 0.0000
vt 0.2068 0.5011 0.0000
vt 0.2206 0.5149 0.0000
vt 0.2380 0.5238 0.0000
vt 0.2573 0.5268 0.0000
vt 0.2766 0.5238 0.0000
vt 0.2940 0.5149 0.0000
vt 0.3078 0.5011 0.0000
vt 0.3167 0.4837 0.0000
vt 0.2302 0.3343 0.0000
vt 0.2495 0.3643 0.0000
vt 0.2302 0.3643 0.0000
vt 0.2495 0.3343 0.0000
vt 0.2669 0.3643 0.0000
vt 0.2669 0.3343 0.0000
vt 0.2807 0.3643 0.0000
vt 0.2807 0.3343 0.0000
vt 0.2895 0.3643 0.0000
vt 0.2895 0.3343 0.0000
vt 0.2926 0.3643 0.0000
vt 0.2926 0.3343 0.0000
vt 0.2109 0.3643 0.0000
vt 0.2109 0.3343 0.0000
vt 0.1935 0.3643 0.0000
vt 0.1935 0.3343 0.0000
vt 0.1797 0.3643 0.0000
vt 0.1797 0.3343 0.0000
vt 0.1708 0.3643 0.0000
vt 0.1708 0.3343 0.0000
vt 0.1678 0.3643 0.0000
vt 0.1678 0.3343 0.0000
vt 0.2495 0.3944 0.0000
vt 0.2302 0.3944 0.0000
vt 0.2669 0.3944 0.0000
vt 0.2807 0.3944 0.0000
vt 0.2895 0.3944 0.0000
vt 0.2926 0.3944 0.0000
vt 0.2109 0.3944 0.0000
vt 0.1935 0.3944 0.0000
vt 0.1797 0.3944 0.0000
vt 0.1708 0.3944 0.0000
vt 0.1678 0.3944 0.0000
vt 0.2495 0.4245 0.0000
vt 0.2302 0.4245 0.0000
vt 0.2669 0.4245 0.0000
vt 0.2807 0.4245 0.0000
vt 0.2895 0.4245 0.0000
vt 0.2926 0.4245 0.0000
vt 0.2109 0.4245 0.0000
vt 0.1935 0.4245 0.0000
vt 0.1797 0.4245 0.0000
vt 0.1708 0.4245 0.0000
vt 0.1678 0.4245 0.0000
vt 0.2495 0.4545 0.0000
vt 0.2302 0.4545 0.0000
vt 0.2669 0.4545 0.0000
vt 0.2807 0.4545 0.0000
vt 0.2895 0.4545 0.0000
vt 0.2926 0.4545 0.0000
vt 0.2109 0.4545 0.0000
vt 0.1935 0.4545 0.0000
vt 0.1797 0.4545 0.0000
vt 0.1708 0.4545 0.0000
vt 0.1678 0.4545 0.0000
vt 0.2495 0.4846 0.0000
vt 0.2302 0.4846 0.0000
vt 0.2669 0.4846 0.0000
vt 0.2807 0.4846 0.0000
vt 0.2895 0.4846 0.0000
vt 0.2926 0.4846 0.0000
vt 0.2109 0.4846 0.0000
vt 0.1935 0.4846 0.0000
vt 0.1797 0.4846 0.0000
vt 0.1708 0.4846 0.0000
vt 0.1678 0.4846 0.0000
vt 0.2495 0.5147 0.0000
vt 0.2302 0.5147 0.0000
vt 0.2669 0.5147 0.0000
vt 0.2807 0.5147 0.0000
vt 0.2895 0.5147 0.0000
vt 0.2926 0.5147 0.0000
vt 0.2109 0.5147 0.0000
vt 0.1935 0.5147 0.0000
vt 0.1797 0.5147 0.0000
vt 0.1708 0.5147 0.0000
vt 0.1678 0.5147 0.0000
vt 0.2495 0.5447 0.0000
vt 0.2302 0.5447 0.0000
vt 0.2669 0.5447 0.0000
vt 0.2807 0.5447 0.0000
vt 0.2895 0.5447 0.0000
vt 0.2926 0.5447 0.0000
vt 0.2109 0.5447 0.0000
vt 0.1935 0.5447 0.0000
vt 0.1797 0.5447 0.0000
vt 0.1708 0.5447 0.0000
vt 0.1678 0.5447 0.0000
vt 0.2495 0.5748 0.0000
vt 0.2302 0.5748 0.0000
vt 0.2669 0.5748 0.0000
vt 0.2807 0.5748 0.0000
vt 0.2895 0.5748 0.0000
vt 0.2926 0.5748 0.0000
vt 0.2109 0.5748 0.0000
vt 0.1935 0.5748 0.0000
vt 0.1797 0.5748 0.0000
vt 0.1708 0.5748 0.0000
vt 0.1678 0.5748 0.0000
vt 0.3893 0.4796 0.0000
vt 0.4518 0.4796 0.0000
vt 0.4487 0.4989 0.0000
vt 0.4398 0.5163 0.0000
vt 0.4260 0.5301 0.0000
vt 0.4086 0.5390 0.0000
vt 0.3893 0.5420 0.0000
vt 0.3700 0.5390 0.0000
vt 0.3526 0.5301 0.0000
vt 0.3388 0.5163 0.0000
vt 0.3300 0.4989 0.0000
vt 0.3269 0.4796 0.0000
vt 0.3300 0.4603 0.0000
vt 0.3388 0.4429 0.0000
vt 0.3526 0.4291 0.0000
vt 0.3700 0.4202 0.0000
vt 0.3893 0.4172 0.0000
vt 0.4086 0.4202 0.0000
vt 0.4260 0.4291 0.0000
vt 0.4398 0.4429 0.0000
vt 0.4487 0.4603 0.0000
# 141 texture coords

o brazo_i
g brazo_i
usemtl 02___Default
s 1
f 1/1/1 2/2/1 3/3/1 
f 1/1/1 4/4/1 2/2/1 
f 1/1/1 5/5/1 4/4/1 
f 1/1/1 6/6/1 5/5/1 
f 1/1/1 7/7/1 6/6/1 
f 1/1/1 8/8/1 7/7/1 
f 1/1/1 9/9/1 8/8/1 
f 1/1/1 10/10/1 9/9/1 
f 1/1/1 11/11/1 10/10/1 
f 1/1/1 12/12/1 11/11/1 
f 1/1/1 13/13/1 12/12/1 
f 1/1/1 14/14/1 13/13/1 
f 1/1/1 15/15/1 14/14/1 
f 1/1/1 16/16/1 15/15/1 
f 1/1/1 17/17/1 16/16/1 
f 1/1/1 18/18/1 17/17/1 
f 1/1/1 19/19/1 18/18/1 
f 1/1/1 20/20/1 19/19/1 
f 1/1/1 21/21/1 20/20/1 
f 1/1/1 3/3/1 21/21/1 
s 8
f 3/22/2 22/23/3 23/24/2 
f 3/22/2 2/25/3 22/23/3 
f 2/25/3 24/26/4 22/23/3 
f 2/25/3 4/27/4 24/26/4 
f 4/27/4 25/28/5 24/26/4 
f 4/27/4 5/29/5 25/28/5 
f 5/29/5 26/30/6 25/28/5 
f 5/29/5 6/31/6 26/30/6 
f 6/31/6 27/32/7 26/30/6 
f 6/31/6 7/33/7 27/32/7 
f 7/33/7 28/30/8 27/32/7 
f 7/33/7 8/31/8 28/30/8 
f 8/31/8 29/28/9 28/30/8 
f 8/31/8 9/29/9 29/28/9 
f 9/29/9 30/26/10 29/28/9 
f 9/29/9 10/27/10 30/26/10 
f 10/27/10 31/23/11 30/26/10 
f 10/27/10 11/25/11 31/23/11 
f 11/25/11 32/24/12 31/23/11 
f 11/25/11 12/22/12 32/24/12 
f 12/22/12 33/34/13 32/24/12 
f 12/22/12 13/35/13 33/34/13 
f 13/35/13 34/36/14 33/34/13 
f 13/35/13 14/37/14 34/36/14 
f 14/37/14 35/38/15 34/36/14 
f 14/37/14 15/39/15 35/38/15 
f 15/39/15 36/40/16 35/38/15 
f 15/39/15 16/41/16 36/40/16 
f 16/41/16 37/42/17 36/40/16 
f 16/41/16 17/43/17 37/42/17 
f 17/43/17 38/40/18 37/42/17 
f 17/43/17 18/41/18 38/40/18 
f 18/41/18 39/38/19 38/40/18 
f 18/41/18 19/39/19 39/38/19 
f 19/39/19 40/36/20 39/38/19 
f 19/39/19 20/37/20 40/36/20 
f 20/37/20 41/34/21 40/36/20 
f 20/37/20 21/35/21 41/34/21 
f 21/35/21 23/24/2 41/34/21 
f 21/35/21 3/22/2 23/24/2 
f 23/24/2 42/44/3 43/45/2 
f 23/24/2 22/23/3 42/44/3 
f 22/23/3 44/46/4 42/44/3 
f 22/23/3 24/26/4 44/46/4 
f 24/26/4 45/47/5 44/46/4 
f 24/26/4 25/28/5 45/47/5 
f 25/28/5 46/48/6 45/47/5 
f 25/28/5 26/30/6 46/48/6 
f 26/30/6 47/49/7 46/48/6 
f 26/30/6 27/32/7 47/49/7 
f 27/32/7 48/48/8 47/49/7 
f 27/32/7 28/30/8 48/48/8 
f 28/30/8 49/47/9 48/48/8 
f 28/30/8 29/28/9 49/47/9 
f 29/28/9 50/46/10 49/47/9 
f 29/28/9 30/26/10 50/46/10 
f 30/26/10 51/44/11 50/46/10 
f 30/26/10 31/23/11 51/44/11 
f 31/23/11 52/45/12 51/44/11 
f 31/23/11 32/24/12 52/45/12 
f 32/24/12 53/50/13 52/45/12 
f 32/24/12 33/34/13 53/50/13 
f 33/34/13 54/51/14 53/50/13 
f 33/34/13 34/36/14 54/51/14 
f 34/36/14 55/52/15 54/51/14 
f 34/36/14 35/38/15 55/52/15 
f 35/38/15 56/53/16 55/52/15 
f 35/38/15 36/40/16 56/53/16 
f 36/40/16 57/54/17 56/53/16 
f 36/40/16 37/42/17 57/54/17 
f 37/42/17 58/53/18 57/54/17 
f 37/42/17 38/40/18 58/53/18 
f 38/40/18 59/52/19 58/53/18 
f 38/40/18 39/38/19 59/52/19 
f 39/38/19 60/51/20 59/52/19 
f 39/38/19 40/36/20 60/51/20 
f 40/36/20 61/50/21 60/51/20 
f 40/36/20 41/34/21 61/50/21 
f 41/34/21 43/45/2 61/50/21 
f 41/34/21 23/24/2 43/45/2 
f 43/45/2 62/55/3 63/56/2 
f 43/45/2 42/44/3 62/55/3 
f 42/44/3 64/57/4 62/55/3 
f 42/44/3 44/46/4 64/57/4 
f 44/46/4 65/58/5 64/57/4 
f 44/46/4 45/47/5 65/58/5 
f 45/47/5 66/59/6 65/58/5 
f 45/47/5 46/48/6 66/59/6 
f 46/48/6 67/60/7 66/59/6 
f 46/48/6 47/49/7 67/60/7 
f 47/49/7 68/59/8 67/60/7 
f 47/49/7 48/48/8 68/59/8 
f 48/48/8 69/58/9 68/59/8 
f 48/48/8 49/47/9 69/58/9 
f 49/47/9 70/57/10 69/58/9 
f 49/47/9 50/46/10 70/57/10 
f 50/46/10 71/55/11 70/57/10 
f 50/46/10 51/44/11 71/55/11 
f 51/44/11 72/56/12 71/55/11 
f 51/44/11 52/45/12 72/56/12 
f 52/45/12 73/61/13 72/56/12 
f 52/45/12 53/50/13 73/61/13 
f 53/50/13 74/62/14 73/61/13 
f 53/50/13 54/51/14 74/62/14 
f 54/51/14 75/63/15 74/62/14 
f 54/51/14 55/52/15 75/63/15 
f 55/52/15 76/64/16 75/63/15 
f 55/52/15 56/53/16 76/64/16 
f 56/53/16 77/65/17 76/64/16 
f 56/53/16 57/54/17 77/65/17 
f 57/54/17 78/64/18 77/65/17 
f 57/54/17 58/53/18 78/64/18 
f 58/53/18 79/63/19 78/64/18 
f 58/53/18 59/52/19 79/63/19 
f 59/52/19 80/62/20 79/63/19 
f 59/52/19 60/51/20 80/62/20 
f 60/51/20 81/61/21 80/62/20 
f 60/51/20 61/50/21 81/61/21 
f 61/50/21 63/56/2 81/61/21 
f 61/50/21 43/45/2 63/56/2 
f 63/56/2 82/66/3 83/67/2 
f 63/56/2 62/55/3 82/66/3 
f 62/55/3 84/68/4 82/66/3 
f 62/55/3 64/57/4 84/68/4 
f 64/57/4 85/69/5 84/68/4 
f 64/57/4 65/58/5 85/69/5 
f 65/58/5 86/70/6 85/69/5 
f 65/58/5 66/59/6 86/70/6 
f 66/59/6 87/71/7 86/70/6 
f 66/59/6 67/60/7 87/71/7 
f 67/60/7 88/70/8 87/71/7 
f 67/60/7 68/59/8 88/70/8 
f 68/59/8 89/69/9 88/70/8 
f 68/59/8 69/58/9 89/69/9 
f 69/58/9 90/68/10 89/69/9 
f 69/58/9 70/57/10 90/68/10 
f 70/57/10 91/66/11 90/68/10 
f 70/57/10 71/55/11 91/66/11 
f 71/55/11 92/67/12 91/66/11 
f 71/55/11 72/56/12 92/67/12 
f 72/56/12 93/72/13 92/67/12 
f 72/56/12 73/61/13 93/72/13 
f 73/61/13 94/73/14 93/72/13 
f 73/61/13 74/62/14 94/73/14 
f 74/62/14 95/74/15 94/73/14 
f 74/62/14 75/63/15 95/74/15 
f 75/63/15 96/75/16 95/74/15 
f 75/63/15 76/64/16 96/75/16 
f 76/64/16 97/76/17 96/75/16 
f 76/64/16 77/65/17 97/76/17 
f 77/65/17 98/75/18 97/76/17 
f 77/65/17 78/64/18 98/75/18 
f 78/64/18 99/74/19 98/75/18 
f 78/64/18 79/63/19 99/74/19 
f 79/63/19 100/73/20 99/74/19 
f 79/63/19 80/62/20 100/73/20 
f 80/62/20 101/72/21 100/73/20 
f 80/62/20 81/61/21 101/72/21 
f 81/61/21 83/67/2 101/72/21 
f 81/61/21 63/56/2 83/67/2 
f 83/67/2 102/77/3 103/78/2 
f 83/67/2 82/66/3 102/77/3 
f 82/66/3 104/79/4 102/77/3 
f 82/66/3 84/68/4 104/79/4 
f 84/68/4 105/80/5 104/79/4 
f 84/68/4 85/69/5 105/80/5 
f 85/69/5 106/81/6 105/80/5 
f 85/69/5 86/70/6 106/81/6 
f 86/70/6 107/82/7 106/81/6 
f 86/70/6 87/71/7 107/82/7 
f 87/71/7 108/81/8 107/82/7 
f 87/71/7 88/70/8 108/81/8 
f 88/70/8 109/80/9 108/81/8 
f 88/70/8 89/69/9 109/80/9 
f 89/69/9 110/79/10 109/80/9 
f 89/69/9 90/68/10 110/79/10 
f 90/68/10 111/77/11 110/79/10 
f 90/68/10 91/66/11 111/77/11 
f 91/66/11 112/78/12 111/77/11 
f 91/66/11 92/67/12 112/78/12 
f 92/67/12 113/83/13 112/78/12 
f 92/67/12 93/72/13 113/83/13 
f 93/72/13 114/84/14 113/83/13 
f 93/72/13 94/73/14 114/84/14 
f 94/73/14 115/85/15 114/84/14 
f 94/73/14 95/74/15 115/85/15 
f 95/74/15 116/86/16 115/85/15 
f 95/74/15 96/75/16 116/86/16 
f 96/75/16 117/87/17 116/86/16 
f 96/75/16 97/76/17 117/87/17 
f 97/76/17 118/86/18 117/87/17 
f 97/76/17 98/75/18 118/86/18 
f 98/75/18 119/85/19 118/86/18 
f 98/75/18 99/74/19 119/85/19 
f 99/74/19 120/84/20 119/85/19 
f 99/74/19 100/73/20 120/84/20 
f 100/73/20 121/83/21 120/84/20 
f 100/73/20 101/72/21 121/83/21 
f 101/72/21 103/78/2 121/83/21 
f 101/72/21 83/67/2 103/78/2 
f 103/78/2 122/88/3 123/89/2 
f 103/78/2 102/77/3 122/88/3 
f 102/77/3 124/90/4 122/88/3 
f 102/77/3 104/79/4 124/90/4 
f 104/79/4 125/91/5 124/90/4 
f 104/79/4 105/80/5 125/91/5 
f 105/80/5 126/92/6 125/91/5 
f 105/80/5 106/81/6 126/92/6 
f 106/81/6 127/93/7 126/92/6 
f 106/81/6 107/82/7 127/93/7 
f 107/82/7 128/92/8 127/93/7 
f 107/82/7 108/81/8 128/92/8 
f 108/81/8 129/91/9 128/92/8 
f 108/81/8 109/80/9 129/91/9 
f 109/80/9 130/90/10 129/91/9 
f 109/80/9 110/79/10 130/90/10 
f 110/79/10 131/88/11 130/90/10 
f 110/79/10 111/77/11 131/88/11 
f 111/77/11 132/89/12 131/88/11 
f 111/77/11 112/78/12 132/89/12 
f 112/78/12 133/94/13 132/89/12 
f 112/78/12 113/83/13 133/94/13 
f 113/83/13 134/95/14 133/94/13 
f 113/83/13 114/84/14 134/95/14 
f 114/84/14 135/96/15 134/95/14 
f 114/84/14 115/85/15 135/96/15 
f 115/85/15 136/97/16 135/96/15 
f 115/85/15 116/86/16 136/97/16 
f 116/86/16 137/98/17 136/97/16 
f 116/86/16 117/87/17 137/98/17 
f 117/87/17 138/97/18 137/98/17 
f 117/87/17 118/86/18 138/97/18 
f 118/86/18 139/96/19 138/97/18 
f 118/86/18 119/85/19 139/96/19 
f 119/85/19 140/95/20 139/96/19 
f 119/85/19 120/84/20 140/95/20 
f 120/84/20 141/94/21 140/95/20 
f 120/84/20 121/83/21 141/94/21 
f 121/83/21 123/89/2 141/94/21 
f 121/83/21 103/78/2 123/89/2 
f 123/89/2 142/99/3 143/100/2 
f 123/89/2 122/88/3 142/99/3 
f 122/88/3 144/101/4 142/99/3 
f 122/88/3 124/90/4 144/101/4 
f 124/90/4 145/102/5 144/101/4 
f 124/90/4 125/91/5 145/102/5 
f 125/91/5 146/103/6 145/102/5 
f 125/91/5 126/92/6 146/103/6 
f 126/92/6 147/104/7 146/103/6 
f 126/92/6 127/93/7 147/104/7 
f 127/93/7 148/103/8 147/104/7 
f 127/93/7 128/92/8 148/103/8 
f 128/92/8 149/102/9 148/103/8 
f 128/92/8 129/91/9 149/102/9 
f 129/91/9 150/101/10 149/102/9 
f 129/91/9 130/90/10 150/101/10 
f 130/90/10 151/99/11 150/101/10 
f 130/90/10 131/88/11 151/99/11 
f 131/88/11 152/100/12 151/99/11 
f 131/88/11 132/89/12 152/100/12 
f 132/89/12 153/105/13 152/100/12 
f 132/89/12 133/94/13 153/105/13 
f 133/94/13 154/106/14 153/105/13 
f 133/94/13 134/95/14 154/106/14 
f 134/95/14 155/107/15 154/106/14 
f 134/95/14 135/96/15 155/107/15 
f 135/96/15 156/108/16 155/107/15 
f 135/96/15 136/97/16 156/108/16 
f 136/97/16 157/109/17 156/108/16 
f 136/97/16 137/98/17 157/109/17 
f 137/98/17 158/108/18 157/109/17 
f 137/98/17 138/97/18 158/108/18 
f 138/97/18 159/107/19 158/108/18 
f 138/97/18 139/96/19 159/107/19 
f 139/96/19 160/106/20 159/107/19 
f 139/96/19 140/95/20 160/106/20 
f 140/95/20 161/105/21 160/106/20 
f 140/95/20 141/94/21 161/105/21 
f 141/94/21 143/100/2 161/105/21 
f 141/94/21 123/89/2 143/100/2 
f 143/100/2 162/110/3 163/111/2 
f 143/100/2 142/99/3 162/110/3 
f 142/99/3 164/112/4 162/110/3 
f 142/99/3 144/101/4 164/112/4 
f 144/101/4 165/113/5 164/112/4 
f 144/101/4 145/102/5 165/113/5 
f 145/102/5 166/114/6 165/113/5 
f 145/102/5 146/103/6 166/114/6 
f 146/103/6 167/115/7 166/114/6 
f 146/103/6 147/104/7 167/115/7 
f 147/104/7 168/114/8 167/115/7 
f 147/104/7 148/103/8 168/114/8 
f 148/103/8 169/113/9 168/114/8 
f 148/103/8 149/102/9 169/113/9 
f 149/102/9 170/112/10 169/113/9 
f 149/102/9 150/101/10 170/112/10 
f 150/101/10 171/110/11 170/112/10 
f 150/101/10 151/99/11 171/110/11 
f 151/99/11 172/111/12 171/110/11 
f 151/99/11 152/100/12 172/111/12 
f 152/100/12 173/116/13 172/111/12 
f 152/100/12 153/105/13 173/116/13 
f 153/105/13 174/117/14 173/116/13 
f 153/105/13 154/106/14 174/117/14 
f 154/106/14 175/118/15 174/117/14 
f 154/106/14 155/107/15 175/118/15 
f 155/107/15 176/119/16 175/118/15 
f 155/107/15 156/108/16 176/119/16 
f 156/108/16 177/120/17 176/119/16 
f 156/108/16 157/109/17 177/120/17 
f 157/109/17 178/119/18 177/120/17 
f 157/109/17 158/108/18 178/119/18 
f 158/108/18 179/118/19 178/119/18 
f 158/108/18 159/107/19 179/118/19 
f 159/107/19 180/117/20 179/118/19 
f 159/107/19 160/106/20 180/117/20 
f 160/106/20 181/116/21 180/117/20 
f 160/106/20 161/105/21 181/116/21 
f 161/105/21 163/111/2 181/116/21 
f 161/105/21 143/100/2 163/111/2 
s 1
f 182/121/22 163/122/22 162/123/22 
f 182/121/22 162/123/22 164/124/22 
f 182/121/22 164/124/22 165/125/22 
f 182/121/22 165/125/22 166/126/22 
f 182/121/22 166/126/22 167/127/22 
f 182/121/22 167/127/22 168/128/22 
f 182/121/22 168/128/22 169/129/22 
f 182/121/22 169/129/22 170/130/22 
f 182/121/22 170/130/22 171/131/22 
f 182/121/22 171/131/22 172/132/22 
f 182/121/22 172/132/22 173/133/22 
f 182/121/22 173/133/22 174/134/22 
f 182/121/22 174/134/22 175/135/22 
f 182/121/22 175/135/22 176/136/22 
f 182/121/22 176/136/22 177/137/22 
f 182/121/22 177/137/22 178/138/22 
f 182/121/22 178/138/22 179/139/22 
f 182/121/22 179/139/22 180/140/22 
f 182/121/22 180/140/22 181/141/22 
f 182/121/22 181/141/22 163/122/22 
# 360 faces

