# 3ds Max Wavefront OBJ Exporter v0.99 - (c)2007 guruware
# File Created: 26.04.2025 12:05:39

mtllib alfombra_jaulabateo.mtl

#
# object Alfombra
#

v  -8.1250 -0.1000 24.9721
v  8.1250 0.1000 24.9721
v  -8.1250 0.1000 24.9721
v  8.1250 -0.1000 24.9721
v  8.1250 0.1000 12.4767
v  8.1250 -0.1000 12.4767
v  8.1250 0.1000 -0.0233
v  8.1250 -0.1000 -0.0233
v  8.1250 0.1000 -12.5233
v  8.1250 -0.1000 -12.5233
v  8.1250 0.1000 -24.9721
v  8.1250 -0.1000 -24.9721
v  -8.1250 0.1000 -24.9721
v  7.1250 0.1000 23.9721
v  -7.1250 0.1000 23.9721
v  7.1250 0.1000 12.4767
v  7.1250 0.1000 -0.0233
v  7.1250 0.1000 -12.5233
v  7.1250 0.1000 -23.9721
v  -7.1250 0.1000 -23.9721
v  -7.1250 0.1000 -12.5233
v  -8.1250 0.1000 -12.5233
v  -7.1250 0.1000 -0.0233
v  -8.1250 0.1000 -0.0233
v  -7.1250 0.1000 12.4767
v  -8.1250 0.1000 12.4767
v  -8.1250 -0.1000 -24.9721
# 27 vertices

vn 0.0000 0.0000 1.0000
vn 1.0000 0.0000 -0.0000
vn 0.0000 0.0000 -1.0000
vn 0.0000 1.0000 -0.0000
# 4 vertex normals

vt 0.0551 0.0407 0.0000
vt 0.0348 0.7406 0.0000
vt 0.2666 0.8019 0.0000
vt 0.4985 0.8631 0.0000
vt 0.7316 0.9177 0.0000
vt 0.9541 0.9640 0.0000
vt 0.9744 0.2641 0.0000
vt 0.7608 0.2141 0.0000
vt 0.7584 0.2129 0.0000
vt 0.5187 0.1632 0.0000
vt 0.2869 0.1019 0.0000
vt 0.7639 0.2135 0.0000
# 12 texture coords

o Alfombra
g Alfombra
usemtl Material__4
s off
f 1/1/1 2/2/1 3/1/1 
f 4/2/2 5/3/2 2/2/2 
f 6/3/2 7/4/2 5/3/2 
f 8/4/2 9/5/2 7/4/2 
f 10/5/2 11/6/2 9/5/2 
f 12/6/3 13/7/3 11/6/3 
f 3/1/4 14/2/4 15/1/4 
f 2/2/4 16/3/4 14/2/4 
f 5/3/4 17/4/4 16/3/4 
f 7/4/4 18/5/4 17/4/4 
f 9/5/4 19/6/4 18/5/4 
f 11/6/4 20/7/4 19/6/4 
f 13/7/4 21/8/4 20/7/4 
f 22/9/4 23/10/4 21/8/4 
f 24/10/4 25/11/4 23/10/4 
f 26/11/4 15/1/4 25/11/4 
s 1
f 15/1/4 14/2/4 16/3/4 
f 25/11/4 16/3/4 17/4/4 
f 23/10/4 17/4/4 18/5/4 
f 21/12/4 18/5/4 19/6/4 
s off
f 1/1/1 4/2/1 2/2/1 
f 4/2/2 6/3/2 5/3/2 
f 6/3/2 8/4/2 7/4/2 
f 8/4/2 10/5/2 9/5/2 
f 10/5/2 12/6/2 11/6/2 
f 12/6/3 27/7/3 13/7/3 
f 3/1/4 2/2/4 14/2/4 
f 2/2/4 5/3/4 16/3/4 
f 5/3/4 7/4/4 17/4/4 
f 7/4/4 9/5/4 18/5/4 
f 9/5/4 11/6/4 19/6/4 
f 11/6/4 13/7/4 20/7/4 
f 13/7/4 22/9/4 21/8/4 
f 22/9/4 24/10/4 23/10/4 
f 24/10/4 26/11/4 25/11/4 
f 26/11/4 3/1/4 15/1/4 
s 1
f 16/3/4 25/11/4 15/1/4 
f 17/4/4 23/10/4 25/11/4 
f 18/5/4 21/12/4 23/10/4 
f 19/6/4 20/7/4 21/12/4 
# 40 faces

