# 3ds Max Wavefront OBJ Exporter v0.99 - (c)2007 guruware
# File Created: 30.04.2025 23:58:19

mtllib Base_obj.mtl

#
# object Base
#

v  0.0000 5.0000 -0.0000
v  7.5000 5.0000 5.0000
v  7.5000 5.0000 -5.0000
v  -7.5000 5.0000 -5.0000
v  -7.5000 5.0000 5.0000
v  7.5000 -2.5000 -0.0000
v  7.5000 -10.0000 -5.0000
v  7.5000 -2.5000 -5.0000
v  7.5000 -2.5000 5.0000
v  0.0000 -2.5000 -5.0000
v  -7.5000 -10.0000 -5.0000
v  -7.5000 -2.5000 -5.0000
v  -7.5000 -2.5000 -0.0000
v  -7.5000 -10.0000 5.0000
v  -7.5000 -2.5000 5.0000
v  0.0000 -10.0000 -5.0000
v  0.0000 5.0000 -5.0000
v  7.5000 -10.0000 5.0000
v  0.0000 5.0000 5.0000
# 19 vertices

vn 0.0000 1.0000 -0.0000
vn 1.0000 0.0000 -0.0000
vn 0.0000 0.0000 -1.0000
vn -1.0000 0.0000 -0.0000
# 4 vertex normals

vt 0.4677 0.2609 0.0000
vt 0.8839 0.5032 0.0000
vt 0.0514 0.5032 0.0000
vt 0.0514 0.0185 0.0000
vt 0.8839 0.0185 0.0000
vt 0.4716 0.2619 0.0000
vt 0.8748 0.0268 0.0000
vt 0.8748 0.2619 0.0000
vt 0.0683 0.4970 0.0000
vt 0.0683 0.2619 0.0000
vt 0.4665 0.2621 0.0000
vt 0.8826 0.5041 0.0000
vt 0.4665 0.5041 0.0000
vt 0.0505 0.0201 0.0000
vt 0.4665 0.0201 0.0000
vt 0.4739 0.2605 0.0000
vt 0.8891 0.0153 0.0000
vt 0.8891 0.2605 0.0000
vt 0.0587 0.5058 0.0000
vt 0.0587 0.2605 0.0000
vt 0.8826 0.0201 0.0000
vt 0.8826 0.2621 0.0000
vt 0.0505 0.5041 0.0000
vt 0.0505 0.2621 0.0000
vt 0.0587 0.0153 0.0000
vt 0.8891 0.5058 0.0000
vt 0.0683 0.0268 0.0000
vt 0.8748 0.4970 0.0000
vt 0.8839 0.2609 0.0000
vt 0.0514 0.2609 0.0000
# 30 texture coords

o Base
g Base
usemtl 01___Default
s 1
f 1/1/1 2/2/1 3/3/1 
f 1/1/1 4/4/1 5/5/1 
s 4
f 6/6/2 7/7/2 8/8/2 
f 6/6/2 2/9/2 9/10/2 
s 2
f 10/11/3 11/12/3 12/13/3 
f 10/11/3 3/14/3 8/15/3 
s 4
f 13/16/4 14/17/4 15/18/4 
f 13/16/4 4/19/4 12/20/4 
s 2
f 7/21/3 16/22/3 10/11/3 
f 4/23/3 17/24/3 10/11/3 
s 4
f 11/25/4 14/17/4 13/16/4 
f 5/26/4 4/19/4 13/16/4 
f 18/27/2 7/7/2 6/6/2 
f 3/28/2 2/9/2 6/6/2 
s 1
f 5/5/1 19/29/1 1/1/1 
f 3/3/1 17/30/1 1/1/1 
s 4
f 13/16/4 12/20/4 11/25/4 
s 2
f 10/11/3 12/13/3 4/23/3 
f 16/22/3 11/12/3 10/11/3 
s 4
f 6/6/2 8/8/2 3/28/2 
s 2
f 10/11/3 8/15/3 7/21/3 
s 1
f 17/30/1 4/4/1 1/1/1 
s 2
f 17/24/3 3/14/3 10/11/3 
s 4
f 6/6/2 9/10/2 18/27/2 
f 13/16/4 15/18/4 5/26/4 
s 1
f 19/29/1 2/2/1 1/1/1 
# 26 faces

