# 3ds Max Wavefront OBJ Exporter v0.99 - (c)2007 guruware
# File Created: 06.05.2025 03:13:25

mtllib BrazoIzquierdoBMO_obj.mtl

#
# object Brazo_Izquierdo
#

v  -0.0021 -0.0310 0.0300
v  -0.0129 -0.1184 -0.0000
v  -0.0084 -0.2820 0.0207
v  0.0018 -0.2517 0.0347
v  -0.0156 0.1961 -0.0000
v  -0.0150 0.1442 -0.0000
v  -0.0063 0.1442 0.0316
v  -0.0083 0.2471 0.0324
v  -0.0083 0.2471 -0.0324
v  -0.0063 0.1442 -0.0316
v  -0.0084 -0.2820 -0.0207
v  -0.0021 -0.0310 -0.0300
v  0.0018 -0.2517 -0.0347
v  -0.0090 -0.2985 -0.0000
v  -0.0004 -0.3388 -0.0131
v  -0.0004 -0.3388 0.0131
v  0.0252 -0.0125 -0.0394
v  0.0273 -0.2425 -0.0406
v  0.0238 0.0289 -0.0395
v  0.0495 0.0289 -0.0293
v  0.0519 -0.0341 -0.0296
v  0.0185 0.2284 -0.0397
v  0.0205 0.1442 -0.0397
v  0.0540 -0.2517 -0.0347
v  0.0663 -0.1187 -0.0000
v  0.0660 -0.2820 -0.0207
v  0.0529 0.1994 -0.0000
v  0.0562 0.1441 -0.0000
v  0.0453 0.1441 -0.0287
v  0.0428 0.2151 -0.0284
v  0.0428 0.2151 0.0284
v  0.0453 0.1441 0.0287
v  0.0660 -0.2820 0.0207
v  0.0519 -0.0341 0.0296
v  0.0540 -0.2517 0.0347
v  0.0670 -0.2985 -0.0000
v  0.0587 -0.3388 0.0131
v  0.0587 -0.3388 -0.0131
v  0.0252 -0.0125 0.0394
v  0.0273 -0.2425 0.0406
v  0.0238 0.0289 0.0395
v  -0.0036 0.0289 0.0306
v  0.0185 0.2284 0.0397
v  0.0205 0.1442 0.0397
v  0.0307 -0.3742 0.0157
v  0.0086 -0.3711 0.0187
v  0.0295 -0.3601 0.0141
v  0.0527 -0.3711 0.0187
v  0.0473 -0.3917 0.0213
v  0.0324 -0.3956 0.0197
v  0.0170 -0.3917 0.0213
v  0.0152 0.3534 0.0389
v  -0.0076 0.3607 0.0397
v  0.0361 0.3482 0.0272
v  0.0242 0.3853 0.0213
v  0.0085 0.3943 0.0272
v  -0.0096 0.4000 0.0284
v  0.0305 -0.3599 0.0407
v  0.0521 -0.3607 0.0370
v  0.0089 -0.3607 0.0370
v  0.0327 -0.3956 0.0370
v  0.0171 -0.3917 0.0355
v  0.0477 -0.3917 0.0355
v  0.0311 -0.3794 0.0126
v  0.0533 -0.3763 0.0094
v  0.0087 -0.3763 0.0094
v  0.0172 -0.3999 0.0071
v  0.0328 -0.4045 0.0086
v  0.0480 -0.3999 0.0071
v  0.0172 -0.3999 -0.0071
v  0.0328 -0.4045 -0.0087
v  0.0329 -0.4140 -0.0000
v  0.0146 -0.4045 -0.0000
v  0.0480 -0.3999 -0.0071
v  0.0509 -0.4045 -0.0000
v  0.0612 -0.3723 -0.0000
v  0.0533 -0.3763 -0.0094
v  0.0006 -0.3723 -0.0000
v  0.0087 -0.3763 -0.0094
v  0.0295 -0.3601 -0.0141
v  0.0311 -0.3794 -0.0126
v  0.0328 -0.4039 0.0284
v  0.0146 -0.3956 0.0284
v  0.0503 -0.3956 0.0284
v  0.0328 -0.4039 -0.0284
v  0.0146 -0.3956 -0.0284
v  0.0171 -0.3917 -0.0355
v  0.0327 -0.3956 -0.0370
v  0.0477 -0.3917 -0.0355
v  0.0503 -0.3956 -0.0284
v  0.0473 -0.3917 -0.0213
v  0.0324 -0.3956 -0.0197
v  0.0170 -0.3917 -0.0213
v  0.0089 -0.3607 -0.0370
v  0.0305 -0.3599 -0.0407
v  0.0521 -0.3607 -0.0370
v  0.0006 -0.3650 0.0274
v  0.0603 -0.3650 -0.0274
v  0.0527 -0.3711 -0.0187
v  0.0307 -0.3742 -0.0157
v  0.0086 -0.3711 -0.0187
v  0.0603 -0.3650 0.0274
v  0.0006 -0.3650 -0.0274
v  0.0085 0.3943 -0.0272
v  0.0065 0.4044 -0.0000
v  0.0255 0.3890 -0.0000
v  0.0242 0.3853 -0.0213
v  -0.0096 0.4000 -0.0284
v  -0.0104 0.4112 -0.0000
v  0.0361 0.3482 -0.0272
v  0.0152 0.3534 -0.0389
v  -0.0076 0.3607 -0.0397
v  0.0435 0.3457 -0.0000
v  -0.0480 0.4023 0.0284
v  -0.0324 0.4023 0.0284
v  -0.0324 0.4140 -0.0000
v  -0.0480 0.4140 -0.0000
v  -0.0480 0.4023 -0.0284
v  -0.0324 0.4023 -0.0284
v  -0.0669 0.4023 -0.0284
v  -0.0669 0.4140 -0.0000
v  -0.0669 0.4023 0.0284
v  -0.0324 0.3402 0.0284
v  -0.0324 0.3712 0.0390
v  -0.0480 0.3712 0.0390
v  -0.0480 0.3402 0.0284
v  -0.0669 0.3712 0.0390
v  -0.0669 0.3402 0.0284
v  -0.0324 0.3712 -0.0390
v  -0.0480 0.3712 -0.0390
v  -0.0480 0.3402 -0.0284
v  -0.0324 0.3402 -0.0284
v  -0.0669 0.3402 -0.0284
v  -0.0669 0.3712 -0.0390
v  -0.0324 0.3285 -0.0000
v  -0.0480 0.3285 -0.0000
v  -0.0669 0.3285 -0.0000
v  -0.0222 0.3128 -0.0000
v  -0.0216 0.3302 -0.0288
v  -0.0216 0.3302 0.0288
v  -0.0214 0.3694 -0.0391
v  -0.0216 0.4020 -0.0284
v  -0.0214 0.3694 0.0391
v  -0.0216 0.4020 0.0284
v  -0.0217 0.4136 -0.0000
v  0.0615 0.0289 -0.0000
v  0.0495 0.0289 0.0293
v  -0.0036 0.0289 -0.0306
v  -0.0139 0.0289 -0.0000
# 149 vertices

vn -0.6859 -0.0053 0.7277
vn -1.0000 0.0034 -0.0000
vn -0.9383 -0.0451 0.3428
vn -0.6207 0.0027 0.7841
vn -0.9991 -0.0415 -0.0000
vn -0.9999 -0.0156 -0.0000
vn -0.7128 -0.0164 0.7012
vn -0.6771 -0.0617 0.7333
vn -0.6771 -0.0617 -0.7333
vn -0.7128 -0.0164 -0.7012
vn -0.9383 -0.0451 -0.3428
vn -0.6859 -0.0053 -0.7277
vn -0.6207 0.0027 -0.7841
vn -0.9979 -0.0645 -0.0000
vn -0.9785 -0.1984 -0.0557
vn -0.9785 -0.1984 0.0557
vn 0.0230 0.0042 -0.9997
vn 0.0010 0.0106 -0.9999
vn 0.0359 0.0003 -0.9994
vn 0.7090 0.0274 -0.7047
vn 0.6840 0.0268 -0.7290
vn 0.1104 0.0027 -0.9939
vn 0.0588 0.0012 -0.9983
vn 0.6054 0.0231 -0.7956
vn 0.9994 0.0353 -0.0000
vn 0.9380 -0.0156 -0.3464
vn 0.9987 0.0509 -0.0000
vn 0.7257 0.0301 -0.6874
vn 0.7549 0.0380 -0.6547
vn 0.7549 0.0380 0.6547
vn 0.7257 0.0301 0.6874
vn 0.9380 -0.0156 0.3464
vn 0.6840 0.0268 0.7290
vn 0.6054 0.0231 0.7956
vn 0.9992 -0.0389 -0.0000
vn 0.9872 -0.1511 0.0517
vn 0.9872 -0.1511 -0.0517
vn 0.0230 0.0042 0.9997
vn 0.0010 0.0106 0.9999
vn 0.0359 0.0003 0.9994
vn -0.7026 -0.0161 0.7114
vn 0.1104 0.0027 0.9939
vn 0.0588 0.0012 0.9983
vn -0.0022 -0.1776 -0.9841
vn -0.5723 -0.2856 -0.7687
vn -0.0488 -0.9986 0.0223
vn 0.5624 -0.2222 -0.7965
vn 0.4680 -0.4186 -0.7783
vn 0.0023 -0.5303 -0.8478
vn -0.4514 -0.4622 -0.7633
vn 0.2402 0.1449 0.9598
vn -0.1383 0.0993 0.9854
vn 0.7830 0.1904 0.5921
vn 0.7213 0.5109 0.4676
vn 0.4062 0.6294 0.6624
vn 0.2082 0.6681 0.7143
vn -0.0017 -0.0420 0.9991
vn 0.5094 -0.0597 0.8585
vn -0.5096 -0.0993 0.8547
vn 0.0047 -0.4982 0.8670
vn -0.4310 -0.3899 0.8137
vn 0.4611 -0.3565 0.8126
vn -0.0012 -0.1295 0.9916
vn 0.5494 -0.1694 0.8182
vn -0.5566 -0.2281 0.7989
vn -0.4538 -0.4087 0.7918
vn -0.0087 -0.4879 0.8729
vn 0.4732 -0.3720 0.7986
vn -0.4538 -0.4087 -0.7918
vn 0.0047 -0.4982 -0.8670
vn 0.0051 -1.0000 -0.0000
vn -0.6990 -0.7151 -0.0000
vn 0.4732 -0.3720 -0.7986
vn 0.7350 -0.6780 -0.0000
vn 0.9843 -0.1765 -0.0000
vn 0.5494 -0.1694 -0.8182
vn -0.9686 -0.2488 -0.0000
vn -0.5566 -0.2281 -0.7989
vn -0.0488 -0.9986 -0.0223
vn 0.0043 -0.1271 -0.9919
vn 0.0114 -0.9999 -0.0011
vn -0.6813 -0.7302 0.0514
vn 0.7249 -0.6879 0.0363
vn 0.0114 -0.9999 0.0011
vn -0.6813 -0.7302 -0.0514
vn -0.4310 -0.3899 -0.8137
vn 0.4611 -0.3565 -0.8126
vn 0.7249 -0.6879 -0.0363
vn 0.4680 -0.4186 0.7783
vn 0.0023 -0.5303 0.8478
vn -0.4515 -0.4622 0.7632
vn -0.5096 -0.0993 -0.8547
vn -0.0017 -0.0420 -0.9991
vn 0.5094 -0.0597 -0.8585
vn -0.9557 -0.2295 0.1842
vn 0.9767 -0.1643 -0.1384
vn 0.5624 -0.2222 0.7965
vn -0.0022 -0.1776 0.9841
vn -0.5723 -0.2856 0.7687
vn 0.9767 -0.1643 0.1384
vn -0.9557 -0.2295 -0.1842
vn 0.4062 0.6294 -0.6624
vn 0.4605 0.8877 -0.0000
vn 0.7863 0.6178 -0.0000
vn 0.7213 0.5109 -0.4676
vn 0.2082 0.6681 -0.7143
vn 0.2624 0.9650 -0.0000
vn 0.7830 0.1904 -0.5921
vn 0.2402 0.1449 -0.9598
vn -0.1383 0.0993 -0.9854
vn 0.9798 0.1998 -0.0000
vn 0.0000 0.6857 0.7279
vn 0.0150 0.6866 0.7269
vn 0.0148 0.9999 -0.0000
vn 0.0000 1.0000 -0.0000
vn 0.0000 0.6857 -0.7279
vn 0.0150 0.6866 -0.7269
vn -0.2347 -0.5751 0.7837
vn -0.0339 0.0260 0.9991
vn 0.0000 0.0000 1.0000
vn 0.0000 -0.6857 0.7279
vn -0.0339 0.0260 -0.9991
vn 0.0000 0.0000 -1.0000
vn 0.0000 -0.6857 -0.7279
vn -0.2347 -0.5751 -0.7837
vn -0.4763 -0.8793 -0.0000
vn -0.9571 -0.2896 -0.0000
vn -0.6586 -0.2948 -0.6924
vn -0.6586 -0.2948 0.6924
vn -0.0918 0.0813 -0.9925
vn 0.0916 0.6880 -0.7199
vn -0.0918 0.0813 0.9925
vn 0.0916 0.6880 0.7200
vn 0.1069 0.9943 -0.0000
vn 0.7090 0.0274 0.7047
vn -0.7026 -0.0161 -0.7114
# 136 vertex normals

vt 0.3214 0.8338 0.0000
vt 0.3326 0.8143 0.0000
vt 0.3248 0.7871 0.0000
vt 0.3197 0.7961 0.0000
vt 0.3326 0.8690 0.0000
vt 0.3326 0.8600 0.0000
vt 0.3207 0.8633 0.0000
vt 0.3204 0.8809 0.0000
vt 0.3449 0.8801 0.0000
vt 0.3447 0.8626 0.0000
vt 0.3405 0.7866 0.0000
vt 0.3441 0.8330 0.0000
vt 0.3459 0.7952 0.0000
vt 0.3327 0.7838 0.0000
vt 0.3377 0.7794 0.0000
vt 0.3278 0.7797 0.0000
vt 0.3481 0.8453 0.0000
vt 0.3485 0.8054 0.0000
vt 0.3481 0.8522 0.0000
vt 0.3445 0.8609 0.0000
vt 0.3447 0.8506 0.0000
vt 0.3481 0.8857 0.0000
vt 0.3481 0.8714 0.0000
vt 0.3467 0.8127 0.0000
vt 0.3337 0.8408 0.0000
vt 0.3415 0.8116 0.0000
vt 0.3335 0.8925 0.0000
vt 0.3336 0.8839 0.0000
vt 0.3443 0.8799 0.0000
vt 0.3441 0.8916 0.0000
vt 0.3226 0.8923 0.0000
vt 0.3225 0.8806 0.0000
vt 0.3258 0.8121 0.0000
vt 0.3223 0.8513 0.0000
vt 0.3204 0.8136 0.0000
vt 0.3337 0.8092 0.0000
vt 0.3286 0.7995 0.0000
vt 0.3385 0.7992 0.0000
vt 0.3182 0.8463 0.0000
vt 0.3178 0.8063 0.0000
vt 0.3182 0.8531 0.0000
vt 0.3212 0.8438 0.0000
vt 0.3180 0.8866 0.0000
vt 0.3181 0.8724 0.0000
vt 0.3273 0.7839 0.0000
vt 0.3258 0.7771 0.0000
vt 0.3279 0.7860 0.0000
vt 0.3264 0.7918 0.0000
vt 0.3254 0.7864 0.0000
vt 0.3258 0.7807 0.0000
vt 0.3250 0.7763 0.0000
vt 0.3183 0.9076 0.0000
vt 0.3176 0.9013 0.0000
vt 0.3230 0.9135 0.0000
vt 0.3251 0.9160 0.0000
vt 0.3226 0.9125 0.0000
vt 0.3219 0.9074 0.0000
vt 0.3178 0.7866 0.0000
vt 0.3195 0.7937 0.0000
vt 0.3189 0.7792 0.0000
vt 0.3192 0.7810 0.0000
vt 0.3196 0.7765 0.0000
vt 0.3200 0.7867 0.0000
vt 0.3284 0.7831 0.0000
vt 0.3300 0.7910 0.0000
vt 0.3294 0.7761 0.0000
vt 0.3303 0.7747 0.0000
vt 0.3300 0.7792 0.0000
vt 0.3308 0.7850 0.0000
vt 0.3357 0.7745 0.0000
vt 0.3365 0.7790 0.0000
vt 0.3332 0.7774 0.0000
vt 0.3330 0.7729 0.0000
vt 0.3361 0.7849 0.0000
vt 0.3335 0.7851 0.0000
vt 0.3336 0.7943 0.0000
vt 0.3371 0.7908 0.0000
vt 0.3328 0.7740 0.0000
vt 0.3365 0.7759 0.0000
vt 0.3385 0.7856 0.0000
vt 0.3380 0.7828 0.0000
vt 0.3225 0.7795 0.0000
vt 0.3222 0.7749 0.0000
vt 0.3227 0.7868 0.0000
vt 0.3440 0.7788 0.0000
vt 0.3437 0.7742 0.0000
vt 0.3465 0.7756 0.0000
vt 0.3473 0.7801 0.0000
vt 0.3469 0.7859 0.0000
vt 0.3442 0.7861 0.0000
vt 0.3415 0.7859 0.0000
vt 0.3407 0.7803 0.0000
vt 0.3411 0.7758 0.0000
vt 0.3469 0.7783 0.0000
vt 0.3486 0.7856 0.0000
vt 0.3475 0.7928 0.0000
vt 0.3224 0.7756 0.0000
vt 0.3440 0.7949 0.0000
vt 0.3406 0.7914 0.0000
vt 0.3391 0.7835 0.0000
vt 0.3400 0.7766 0.0000
vt 0.3232 0.7956 0.0000
vt 0.3432 0.7749 0.0000
vt 0.3432 0.9118 0.0000
vt 0.3329 0.9132 0.0000
vt 0.3331 0.9169 0.0000
vt 0.3412 0.9155 0.0000
vt 0.3434 0.9067 0.0000
vt 0.3326 0.9088 0.0000
vt 0.3436 0.9129 0.0000
vt 0.3477 0.9067 0.0000
vt 0.3477 0.9003 0.0000
vt 0.3334 0.9153 0.0000
vt 0.3214 0.8950 0.0000
vt 0.3216 0.9002 0.0000
vt 0.3323 0.9019 0.0000
vt 0.3321 0.8967 0.0000
vt 0.3429 0.8943 0.0000
vt 0.3431 0.8995 0.0000
vt 0.3426 0.8879 0.0000
vt 0.3319 0.8903 0.0000
vt 0.3211 0.8886 0.0000
vt 0.3216 0.8892 0.0000
vt 0.3176 0.8948 0.0000
vt 0.3174 0.8896 0.0000
vt 0.3214 0.8840 0.0000
vt 0.3171 0.8833 0.0000
vt 0.3211 0.8776 0.0000
vt 0.3471 0.8939 0.0000
vt 0.3469 0.8887 0.0000
vt 0.3429 0.8833 0.0000
vt 0.3431 0.8885 0.0000
vt 0.3426 0.8770 0.0000
vt 0.3466 0.8823 0.0000
vt 0.3323 0.8868 0.0000
vt 0.3321 0.8816 0.0000
vt 0.3319 0.8752 0.0000
vt 0.3325 0.8874 0.0000
vt 0.3434 0.8904 0.0000
vt 0.3216 0.8911 0.0000
vt 0.3473 0.8972 0.0000
vt 0.3432 0.9031 0.0000
vt 0.3177 0.8982 0.0000
vt 0.3217 0.9038 0.0000
vt 0.3325 0.9054 0.0000
vt 0.3336 0.8653 0.0000
vt 0.3224 0.8616 0.0000
vt 0.3443 0.8431 0.0000
vt 0.3326 0.8400 0.0000
# 149 texture coords

o Brazo_Izquierdo
g Brazo_Izquierdo
usemtl cuerpo_mso
s 1
f 1/1/1 2/2/2 3/3/3 
f 3/3/3 4/4/4 1/1/1 
f 5/5/5 6/6/6 7/7/7 
f 7/7/7 8/8/8 5/5/5 
f 9/9/9 10/10/10 6/6/6 
f 6/6/6 5/5/5 9/9/9 
f 11/11/11 2/2/2 12/12/12 
f 12/12/12 13/13/13 11/11/11 
f 14/14/14 2/2/2 11/11/11 
f 11/11/11 15/15/15 14/14/14 
f 3/3/3 2/2/2 14/14/14 
f 14/14/14 16/16/16 3/3/3 
f 12/12/12 17/17/17 18/18/18 
f 18/18/18 13/13/13 12/12/12 
f 17/17/17 19/19/19 20/20/20 
f 20/20/20 21/21/21 17/17/17 
f 22/22/22 23/23/23 10/10/10 
f 10/10/10 9/9/9 22/22/22 
f 18/18/18 17/17/17 21/21/21 
f 21/21/21 24/24/24 18/18/18 
f 21/21/21 25/25/25 26/26/26 
f 26/26/26 24/24/24 21/21/21 
f 27/27/27 28/28/25 29/29/28 
f 29/29/28 30/30/29 27/27/27 
f 27/27/27 31/31/30 32/32/31 
f 32/32/31 28/28/25 27/27/27 
f 33/33/32 25/25/25 34/34/33 
f 34/34/33 35/35/34 33/33/32 
f 36/36/35 25/25/25 33/33/32 
f 33/33/32 37/37/36 36/36/35 
f 25/25/25 36/36/35 38/38/37 
f 38/38/37 26/26/26 25/25/25 
f 35/35/34 34/34/33 39/39/38 
f 39/39/38 40/40/39 35/35/34 
f 41/41/40 42/42/41 1/1/1 
f 1/1/1 39/39/38 41/41/40 
f 43/43/42 44/44/43 32/32/31 
f 32/32/31 31/31/30 43/43/42 
f 40/40/39 39/39/38 1/1/1 
f 1/1/1 4/4/4 40/40/39 
f 45/45/44 46/46/45 16/16/16 
f 16/16/16 47/47/46 45/45/44 
f 45/45/44 47/47/46 37/37/36 
f 37/37/36 48/48/47 45/45/44 
f 48/48/47 49/49/48 50/50/49 
f 50/50/49 45/45/44 48/48/47 
f 46/46/45 45/45/44 50/50/49 
f 50/50/49 51/51/50 46/46/45 
f 52/52/51 53/53/52 8/8/8 
f 8/8/8 43/43/42 52/52/51 
f 52/52/51 43/43/42 31/31/30 
f 31/31/30 54/54/53 52/52/51 
f 54/54/53 55/55/54 56/56/55 
f 56/56/55 52/52/51 54/54/53 
f 53/53/52 52/52/51 56/56/55 
f 56/56/55 57/57/56 53/53/52 
f 58/58/57 59/59/58 35/35/34 
f 35/35/34 40/40/39 58/58/57 
f 58/58/57 40/40/39 4/4/4 
f 4/4/4 60/60/59 58/58/57 
f 61/61/60 58/58/57 60/60/59 
f 60/60/59 62/62/61 61/61/60 
f 61/61/60 63/63/62 59/59/58 
f 59/59/58 58/58/57 61/61/60 
f 64/64/63 65/65/64 37/37/36 
f 37/37/36 47/47/46 64/64/63 
f 47/47/46 16/16/16 66/66/65 
f 66/66/65 64/64/63 47/47/46 
f 64/64/63 66/66/65 67/67/66 
f 67/67/66 68/68/67 64/64/63 
f 65/65/64 64/64/63 68/68/67 
f 68/68/67 69/69/68 65/65/64 
f 70/70/69 71/71/70 72/72/71 
f 72/72/71 73/73/72 70/70/69 
f 71/71/70 74/74/73 75/75/74 
f 75/75/74 72/72/71 71/71/70 
f 75/75/74 69/69/68 68/68/67 
f 68/68/67 72/72/71 75/75/74 
f 72/72/71 68/68/67 67/67/66 
f 67/67/66 73/73/72 72/72/71 
f 38/38/37 36/36/35 76/76/75 
f 76/76/75 77/77/76 38/38/37 
f 36/36/35 37/37/36 65/65/64 
f 65/65/64 76/76/75 36/36/35 
f 76/76/75 65/65/64 69/69/68 
f 69/69/68 75/75/74 76/76/75 
f 77/77/76 76/76/75 75/75/74 
f 75/75/74 74/74/73 77/77/76 
f 16/16/16 14/14/14 78/78/77 
f 78/78/77 66/66/65 16/16/16 
f 14/14/14 15/15/15 79/79/78 
f 79/79/78 78/78/77 14/14/14 
f 70/70/69 73/73/72 78/78/77 
f 78/78/77 79/79/78 70/70/69 
f 66/66/65 78/78/77 73/73/72 
f 73/73/72 67/67/66 66/66/65 
f 80/80/79 81/81/80 79/79/78 
f 79/79/78 15/15/15 80/80/79 
f 77/77/76 81/81/80 80/80/79 
f 80/80/79 38/38/37 77/77/76 
f 81/81/80 77/77/76 74/74/73 
f 74/74/73 71/71/70 81/81/80 
f 79/79/78 81/81/80 71/71/70 
f 71/71/70 70/70/69 79/79/78 
f 82/82/81 83/83/82 51/51/50 
f 51/51/50 50/50/49 82/82/81 
f 84/84/83 82/82/81 50/50/49 
f 50/50/49 49/49/48 84/84/83 
f 84/84/83 63/63/62 61/61/60 
f 61/61/60 82/82/81 84/84/83 
f 62/62/61 83/83/82 82/82/81 
f 82/82/81 61/61/60 62/62/61 
f 85/85/84 86/86/85 87/87/86 
f 87/87/86 88/88/70 85/85/84 
f 85/85/84 88/88/70 89/89/87 
f 89/89/87 90/90/88 85/85/84 
f 91/91/89 92/92/90 85/85/84 
f 85/85/84 90/90/88 91/91/89 
f 86/86/85 85/85/84 92/92/90 
f 92/92/90 93/93/91 86/86/85 
f 94/94/92 13/13/13 18/18/18 
f 18/18/18 95/95/93 94/94/92 
f 96/96/94 95/95/93 18/18/18 
f 18/18/18 24/24/24 96/96/94 
f 89/89/87 88/88/70 95/95/93 
f 95/95/93 96/96/94 89/89/87 
f 87/87/86 94/94/92 95/95/93 
f 95/95/93 88/88/70 87/87/86 
f 60/60/59 4/4/4 3/3/3 
f 3/3/3 97/97/95 60/60/59 
f 46/46/45 97/97/95 3/3/3 
f 3/3/3 16/16/16 46/46/45 
f 51/51/50 83/83/82 97/97/95 
f 97/97/95 46/46/45 51/51/50 
f 62/62/61 60/60/59 97/97/95 
f 97/97/95 83/83/82 62/62/61 
f 96/96/94 24/24/24 26/26/26 
f 26/26/26 98/98/96 96/96/94 
f 99/99/97 98/98/96 26/26/26 
f 26/26/26 38/38/37 99/99/97 
f 98/98/96 99/99/97 91/91/89 
f 91/91/89 90/90/88 98/98/96 
f 96/96/94 98/98/96 90/90/88 
f 90/90/88 89/89/87 96/96/94 
f 99/99/97 38/38/37 80/80/79 
f 80/80/79 100/100/98 99/99/97 
f 100/100/98 80/80/79 15/15/15 
f 15/15/15 101/101/99 100/100/98 
f 101/101/99 93/93/91 92/92/90 
f 92/92/90 100/100/98 101/101/99 
f 99/99/97 100/100/98 92/92/90 
f 92/92/90 91/91/89 99/99/97 
f 48/48/47 37/37/36 33/33/32 
f 33/33/32 102/102/100 48/48/47 
f 59/59/58 102/102/100 33/33/32 
f 33/33/32 35/35/34 59/59/58 
f 102/102/100 59/59/58 63/63/62 
f 63/63/62 84/84/83 102/102/100 
f 48/48/47 102/102/100 84/84/83 
f 84/84/83 49/49/48 48/48/47 
f 101/101/99 15/15/15 11/11/11 
f 11/11/11 103/103/101 101/101/99 
f 103/103/101 11/11/11 13/13/13 
f 13/13/13 94/94/92 103/103/101 
f 94/94/92 87/87/86 86/86/85 
f 86/86/85 103/103/101 94/94/92 
f 101/101/99 103/103/101 86/86/85 
f 86/86/85 93/93/91 101/101/99 
f 104/104/102 105/105/103 106/106/104 
f 106/106/104 107/107/105 104/104/102 
f 104/104/102 108/108/106 109/109/107 
f 109/109/107 105/105/103 104/104/102 
f 109/109/107 57/57/56 56/56/55 
f 56/56/55 105/105/103 109/109/107 
f 56/56/55 55/55/54 106/106/104 
f 106/106/104 105/105/103 56/56/55 
f 110/110/108 30/30/29 22/22/22 
f 22/22/22 111/111/109 110/110/108 
f 111/111/109 22/22/22 9/9/9 
f 9/9/9 112/112/110 111/111/109 
f 112/112/110 108/108/106 104/104/102 
f 104/104/102 111/111/109 112/112/110 
f 110/110/108 111/111/109 104/104/102 
f 104/104/102 107/107/105 110/110/108 
f 54/54/53 31/31/30 27/27/27 
f 27/27/27 113/113/111 54/54/53 
f 113/113/111 27/27/27 30/30/29 
f 30/30/29 110/110/108 113/113/111 
f 110/110/108 107/107/105 106/106/104 
f 106/106/104 113/113/111 110/110/108 
f 113/113/111 106/106/104 55/55/54 
f 55/55/54 54/54/53 113/113/111 
f 114/114/112 115/115/113 116/116/114 
f 116/116/114 117/117/115 114/114/112 
f 118/118/116 117/117/115 116/116/114 
f 116/116/114 119/119/117 118/118/116 
f 118/118/116 120/120/116 121/121/115 
f 121/121/115 117/117/115 118/118/116 
f 114/114/112 117/117/115 121/121/115 
f 121/121/115 122/122/112 114/114/112 
f 123/123/118 124/124/119 125/125/120 
f 125/125/120 126/126/121 123/123/118 
f 114/114/112 125/125/120 124/124/119 
f 124/124/119 115/115/113 114/114/112 
f 114/114/112 122/122/112 127/127/120 
f 127/127/120 125/125/120 114/114/112 
f 128/128/121 126/126/121 125/125/120 
f 125/125/120 127/127/120 128/128/121 
f 118/118/116 119/119/117 129/129/122 
f 129/129/122 130/130/123 118/118/116 
f 131/131/124 130/130/123 129/129/122 
f 129/129/122 132/132/125 131/131/124 
f 131/131/124 133/133/124 134/134/123 
f 134/134/123 130/130/123 131/131/124 
f 118/118/116 130/130/123 134/134/123 
f 134/134/123 120/120/116 118/118/116 
f 135/135/126 136/136/71 131/131/124 
f 131/131/124 132/132/125 135/135/126 
f 135/135/126 123/123/118 126/126/121 
f 126/126/121 136/136/71 135/135/126 
f 136/136/71 126/126/121 128/128/121 
f 128/128/121 137/137/71 136/136/71 
f 136/136/71 137/137/71 133/133/124 
f 133/133/124 131/131/124 136/136/71 
f 9/9/9 5/5/5 138/138/127 
f 138/138/127 139/139/128 9/9/9 
f 138/138/127 5/5/5 8/8/8 
f 8/8/8 140/140/129 138/138/127 
f 138/138/127 140/140/129 123/123/118 
f 123/123/118 135/135/126 138/138/127 
f 138/138/127 135/135/126 132/132/125 
f 132/132/125 139/139/128 138/138/127 
f 108/108/106 112/112/110 141/141/130 
f 141/141/130 142/142/131 108/108/106 
f 139/139/128 141/141/130 112/112/110 
f 112/112/110 9/9/9 139/139/128 
f 139/139/128 132/132/125 129/129/122 
f 129/129/122 141/141/130 139/139/128 
f 141/141/130 129/129/122 119/119/117 
f 119/119/117 142/142/131 141/141/130 
f 53/53/52 143/143/132 140/140/129 
f 140/140/129 8/8/8 53/53/52 
f 53/53/52 57/57/56 144/144/133 
f 144/144/133 143/143/132 53/53/52 
f 144/144/133 115/115/113 124/124/119 
f 124/124/119 143/143/132 144/144/133 
f 143/143/132 124/124/119 123/123/118 
f 123/123/118 140/140/129 143/143/132 
f 57/57/56 109/109/107 145/145/134 
f 145/145/134 144/144/133 57/57/56 
f 108/108/106 142/142/131 145/145/134 
f 145/145/134 109/109/107 108/108/106 
f 145/145/134 142/142/131 119/119/117 
f 119/119/117 116/116/114 145/145/134 
f 145/145/134 116/116/114 115/115/113 
f 115/115/113 144/144/133 145/145/134 
f 146/146/25 147/147/135 34/34/33 
f 34/34/33 25/25/25 146/146/25 
f 8/8/8 7/7/7 44/44/43 
f 44/44/43 43/43/42 8/8/8 
f 21/21/21 20/20/20 146/146/25 
f 146/146/25 25/25/25 21/21/21 
f 19/19/19 17/17/17 12/12/12 
f 12/12/12 148/148/136 19/19/19 
f 149/149/6 148/148/136 12/12/12 
f 12/12/12 2/2/2 149/149/6 
f 23/23/23 22/22/22 30/30/29 
f 30/30/29 29/29/28 23/23/23 
f 149/149/6 2/2/2 1/1/1 
f 1/1/1 42/42/41 149/149/6 
f 149/149/6 42/42/41 7/7/7 
f 7/7/7 6/6/6 149/149/6 
f 146/146/25 20/20/20 29/29/28 
f 29/29/28 28/28/25 146/146/25 
f 6/6/6 10/10/10 148/148/136 
f 148/148/136 149/149/6 6/6/6 
f 147/147/135 146/146/25 28/28/25 
f 28/28/25 32/32/31 147/147/135 
f 44/44/43 41/41/40 147/147/135 
f 147/147/135 32/32/31 44/44/43 
f 44/44/43 7/7/7 42/42/41 
f 42/42/41 41/41/40 44/44/43 
f 19/19/19 148/148/136 10/10/10 
f 10/10/10 23/23/23 19/19/19 
f 29/29/28 20/20/20 19/19/19 
f 19/19/19 23/23/23 29/29/28 
f 34/34/33 147/147/135 41/41/40 
f 41/41/40 39/39/38 34/34/33 
# 288 faces

