# 3ds Max Wavefront OBJ Exporter v0.99 - (c)2007 guruware
# File Created: 05.05.2025 01:26:47

mtllib LetreroTopo_obj.mtl

#
# object Letrero
#

v  0.0000 -7.5000 -0.0000
v  -3.7500 -7.5000 -0.3750
v  0.0000 -7.5000 -0.7500
v  3.7500 -7.5000 0.3750
v  0.0000 -7.5000 0.7500
v  3.7500 7.5000 -0.7500
v  3.7500 7.5000 0.3750
v  7.5000 7.5000 -0.7500
v  -3.7500 7.5000 0.7500
v  -3.7500 7.5000 -0.3750
v  -7.5000 7.5000 0.7500
v  3.7500 0.0000 0.7500
v  3.7500 -3.7500 0.7500
v  7.5000 0.0000 0.7500
v  -3.7500 0.0000 0.7500
v  -3.7500 3.7500 0.7500
v  -7.5000 0.0000 0.7500
v  7.5000 0.0000 -0.0000
v  7.5000 -3.7500 -0.3750
v  7.5000 0.0000 -0.7500
v  7.5000 3.7500 0.3750
v  -3.7500 0.0000 -0.7500
v  -3.7500 -3.7500 -0.7500
v  -7.5000 0.0000 -0.7500
v  3.7500 0.0000 -0.7500
v  3.7500 3.7500 -0.7500
v  -7.5000 0.0000 -0.0000
v  -7.5000 -3.7500 0.3750
v  -7.5000 3.7500 -0.3750
v  3.7500 -3.7500 -0.7500
v  0.0000 -3.7500 -0.7500
v  -3.7500 3.7500 -0.7500
v  0.0000 7.5000 -0.7500
v  0.0000 3.7500 -0.7500
v  -3.7500 -3.7500 0.7500
v  0.0000 -3.7500 0.7500
v  3.7500 3.7500 0.7500
v  0.0000 7.5000 0.7500
v  0.0000 3.7500 0.7500
v  -7.5000 -7.5000 -0.7500
v  -7.5000 -7.5000 0.7500
v  -7.5000 7.5000 -0.7500
v  7.5000 -7.5000 0.7500
v  7.5000 -7.5000 -0.7500
v  7.5000 7.5000 0.7500
v  0.0000 7.5000 -0.0000
v  -7.5000 -3.7500 -0.7500
v  -7.5000 3.7500 -0.7500
v  3.7500 -7.5000 -0.7500
v  -3.7500 -7.5000 -0.7500
v  7.5000 3.7500 -0.7500
v  7.5000 -3.7500 -0.7500
v  -3.7500 7.5000 -0.7500
v  7.5000 -3.7500 0.7500
v  7.5000 3.7500 0.7500
v  -3.7500 -7.5000 0.7500
v  3.7500 -7.5000 0.7500
v  -7.5000 3.7500 0.7500
v  -7.5000 -3.7500 0.7500
v  3.7500 7.5000 0.7500
v  0.0000 0.0000 -0.7500
v  0.0000 0.0000 0.7500
# 62 vertices

vn 0.0000 -1.0000 -0.0000
vn 0.0000 1.0000 -0.0000
vn 0.0000 0.0000 1.0000
vn 1.0000 0.0000 -0.0000
vn 0.0000 0.0000 -1.0000
vn -1.0000 0.0000 -0.0000
# 6 vertex normals

vt 0.6463 0.4180 0.0000
vt 0.6489 0.4206 0.0000
vt 0.6463 0.4231 0.0000
vt 0.6437 0.4154 0.0000
vt 0.6463 0.4128 0.0000
vt 0.6489 0.4231 0.0000
vt 0.6489 0.4154 0.0000
vt 0.6515 0.4231 0.0000
vt 0.6437 0.4128 0.0000
vt 0.6437 0.4206 0.0000
vt 0.6411 0.4128 0.0000
vt 0.7109 0.3980 0.0000
vt 0.7109 0.3944 0.0000
vt 0.7145 0.3980 0.0000
vt 0.1968 -0.0293 0.0000
vt 0.1968 0.3357 0.0000
vt -0.0532 -0.0293 0.0000
vt 0.6515 0.4180 0.0000
vt 0.6411 0.4180 0.0000
vt 0.6489 0.4180 0.0000
vt 0.6437 0.4180 0.0000
vt 0.6463 0.4154 0.0000
vt 0.6463 0.4206 0.0000
vt 0.7037 0.3944 0.0000
vt 0.7073 0.3908 0.0000
vt 0.7073 0.3944 0.0000
vt 0.6968 0.3357 0.0000
vt 0.4468 0.7007 0.0000
vt 0.4468 0.3357 0.0000
vt 0.6515 0.4128 0.0000
vt 0.6411 0.4231 0.0000
vt 0.6411 0.4154 0.0000
vt 0.6515 0.4206 0.0000
vt 0.6437 0.4231 0.0000
vt 0.6489 0.4128 0.0000
vt 0.9468 -0.0293 0.0000
vt 0.9468 0.3357 0.0000
vt 0.7109 0.3908 0.0000
vt 0.7001 0.3980 0.0000
vt 0.7001 0.3944 0.0000
vt 0.1968 0.7007 0.0000
vt 0.6515 0.4154 0.0000
vt 0.6411 0.4206 0.0000
vt 0.7073 0.3980 0.0000
vt 0.7145 0.3908 0.0000
vt 0.7145 0.3944 0.0000
vt 0.9468 0.7007 0.0000
vt 0.6968 0.7007 0.0000
vt 0.4468 -0.0293 0.0000
vt 0.6968 -0.0293 0.0000
vt 0.7037 0.3980 0.0000
vt 0.7001 0.3908 0.0000
vt 0.7037 0.3908 0.0000
vt -0.0532 0.7007 0.0000
vt -0.0532 0.3357 0.0000
# 55 texture coords

o Letrero
g Letrero
usemtl 01___Default
s 1
f 1/1/1 2/2/1 3/3/1 
f 1/1/1 4/4/1 5/5/1 
f 6/6/2 7/7/2 8/8/2 
f 9/9/2 10/10/2 11/11/2 
s 2
f 12/12/3 13/13/3 14/14/3 
f 15/15/3 16/16/3 17/17/3 
s 4
f 18/1/4 19/7/4 20/18/4 
f 18/1/4 21/10/4 14/19/4 
s 2
f 22/20/5 23/7/5 24/18/5 
f 25/21/5 26/10/5 20/19/5 
s 4
f 27/1/6 28/7/6 17/18/6 
f 27/1/6 29/10/6 24/19/6 
s 2
f 30/4/5 3/5/5 31/22/5 
f 32/2/5 33/3/5 34/23/5 
f 35/24/3 5/25/3 36/26/3 
f 37/27/3 38/28/3 39/29/3 
s 4
f 40/11/6 41/30/6 28/7/6 
f 11/8/6 42/31/6 29/10/6 
f 43/11/4 44/30/4 19/7/4 
f 8/8/4 45/31/4 21/10/4 
s 1
f 10/10/2 9/9/2 46/1/2 
f 7/7/2 6/6/2 46/1/2 
f 41/30/1 40/8/1 2/2/1 
f 44/31/1 43/11/1 4/4/1 
s 4
f 28/7/6 27/1/6 47/32/6 
s 2
f 32/2/5 24/18/5 48/33/5 
s 1
f 4/4/1 1/1/1 49/34/1 
s 2
f 3/5/5 50/35/5 23/7/5 
s 4
f 21/10/4 18/1/4 51/33/4 
s 2
f 30/4/5 20/19/5 52/32/5 
s 1
f 33/3/2 53/34/2 10/10/2 
s 2
f 33/3/5 6/34/5 26/10/5 
s 4
f 19/7/4 18/1/4 54/32/4 
s 2
f 37/27/3 14/36/3 55/37/3 
s 1
f 2/2/1 1/1/1 56/35/1 
s 2
f 5/25/3 57/38/3 13/13/3 
s 4
f 29/10/6 27/1/6 58/33/6 
s 2
f 35/24/3 17/39/3 59/40/3 
s 1
f 38/5/2 60/35/2 7/7/2 
s 2
f 38/28/3 9/41/3 16/16/3 
f 31/22/5 23/7/5 61/1/5 
f 23/7/5 40/30/5 47/42/5 
f 42/8/5 53/6/5 32/2/5 
f 61/1/5 22/20/5 32/2/5 
f 61/1/5 25/21/5 30/4/5 
f 44/11/5 49/9/5 30/4/5 
f 34/23/5 26/10/5 61/1/5 
f 26/10/5 8/31/5 51/43/5 
f 36/26/3 13/13/3 62/44/3 
f 13/13/3 43/45/3 54/46/3 
f 45/47/3 60/48/3 37/27/3 
f 62/49/3 12/50/3 37/27/3 
f 62/44/3 15/51/3 35/24/3 
f 41/52/3 56/53/3 35/24/3 
f 39/29/3 16/16/3 62/49/3 
f 16/16/3 11/54/3 58/55/3 
s 4
f 28/7/6 41/30/6 59/42/6 
f 24/19/6 47/32/6 27/1/6 
f 29/10/6 42/31/6 48/43/6 
f 17/18/6 58/33/6 27/1/6 
f 19/7/4 44/30/4 52/42/4 
f 14/19/4 54/32/4 18/1/4 
f 21/10/4 45/31/4 55/43/4 
f 20/18/4 51/33/4 18/1/4 
s 1
f 38/5/2 7/7/2 46/1/2 
f 7/7/2 45/30/2 8/8/2 
f 33/3/2 10/10/2 46/1/2 
f 10/10/2 42/31/2 11/11/2 
f 2/2/1 40/8/1 50/6/1 
f 5/5/1 56/35/1 1/1/1 
f 4/4/1 43/11/1 57/9/1 
f 3/3/1 49/34/1 1/1/1 
f 2/2/1 50/6/1 3/3/1 
s 2
f 50/35/5 40/30/5 23/7/5 
f 30/4/5 31/22/5 61/1/5 
f 3/5/5 23/7/5 31/22/5 
f 22/20/5 24/18/5 32/2/5 
f 61/1/5 23/7/5 22/20/5 
s 4
f 28/7/6 47/32/6 40/11/6 
s 2
f 23/7/5 47/42/5 24/18/5 
f 33/3/5 26/10/5 34/23/5 
f 32/2/5 34/23/5 61/1/5 
s 1
f 53/34/2 42/31/2 10/10/2 
s 2
f 53/6/5 33/3/5 32/2/5 
s 4
f 29/10/6 48/43/6 24/19/6 
s 2
f 32/2/5 48/33/5 42/8/5 
s 4
f 19/7/4 52/42/4 20/18/4 
s 2
f 30/4/5 52/32/5 44/11/5 
f 61/1/5 26/10/5 25/21/5 
f 25/21/5 20/19/5 30/4/5 
s 1
f 4/4/1 49/34/1 44/31/1 
s 2
f 49/9/5 3/5/5 30/4/5 
s 1
f 33/3/2 46/1/2 6/6/2 
s 2
f 6/34/5 8/31/5 26/10/5 
s 4
f 21/10/4 51/33/4 8/8/4 
s 2
f 26/10/5 51/43/5 20/19/5 
s 1
f 4/4/1 57/9/1 5/5/1 
s 2
f 57/38/3 43/45/3 13/13/3 
f 35/24/3 36/26/3 62/44/3 
f 5/25/3 13/13/3 36/26/3 
f 12/50/3 14/36/3 37/27/3 
f 62/44/3 13/13/3 12/12/3 
s 4
f 19/7/4 54/32/4 43/11/4 
s 2
f 13/13/3 54/46/3 14/14/3 
f 38/28/3 16/16/3 39/29/3 
f 37/27/3 39/29/3 62/49/3 
s 1
f 60/35/2 45/30/2 7/7/2 
s 2
f 60/48/3 38/28/3 37/27/3 
s 4
f 21/10/4 55/43/4 14/19/4 
s 2
f 37/27/3 55/37/3 45/47/3 
s 4
f 28/7/6 59/42/6 17/18/6 
s 2
f 35/24/3 59/40/3 41/52/3 
f 62/49/3 16/16/3 15/15/3 
f 15/51/3 17/39/3 35/24/3 
s 1
f 2/2/1 56/35/1 41/30/1 
s 2
f 56/53/3 5/25/3 35/24/3 
s 1
f 38/5/2 46/1/2 9/9/2 
s 2
f 9/41/3 11/54/3 16/16/3 
s 4
f 29/10/6 58/33/6 11/8/6 
s 2
f 16/16/3 58/55/3 17/17/3 
# 120 faces

