# 3ds Max Wavefront OBJ Exporter v0.99 - (c)2007 guruware
# File Created: 01.05.2025 18:31:44

mtllib PizzaQueso_obj.mtl

#
# object PizzaQueso
#

v  3.9469 -0.1422 -1.6349
v  3.0209 -0.1422 -3.0209
v  3.0209 0.1369 -3.0209
v  3.9469 0.1369 -1.6349
v  1.6349 -0.1422 -3.9469
v  1.6349 0.1369 -3.9469
v  0.0000 -0.1422 -4.2721
v  0.0000 0.1369 -4.2721
v  -1.6349 -0.1422 -3.9469
v  -1.6349 0.1369 -3.9469
v  -3.0208 -0.1422 -3.0209
v  -3.0208 0.1369 -3.0209
v  -3.9469 -0.1422 -1.6349
v  -3.9469 0.1369 -1.6349
v  -4.2721 -0.1422 -0.0000
v  -4.2721 0.1369 -0.0000
v  -3.9469 -0.1422 1.6349
v  -3.9469 0.1369 1.6349
v  -3.0209 -0.1422 3.0209
v  -3.0209 0.1369 3.0209
v  -1.6349 -0.1422 3.9469
v  -1.6349 0.1369 3.9469
v  0.0000 -0.1422 4.2721
v  0.0000 0.1369 4.2721
v  1.6349 -0.1422 3.9469
v  1.6349 0.1369 3.9469
v  3.0209 -0.1422 3.0209
v  3.0209 0.1369 3.0209
v  3.9469 -0.1422 1.6349
v  3.9469 0.1369 1.6349
v  4.2721 -0.1422 -0.0000
v  4.2721 0.1369 -0.0000
v  2.9096 -0.2986 -2.9096
v  3.8016 -0.2986 -1.5747
v  0.0000 -0.2986 -0.0000
v  1.5747 -0.2986 -3.8016
v  0.0000 -0.2986 -4.1148
v  -1.5747 -0.2986 -3.8016
v  -2.9096 -0.2986 -2.9096
v  -3.8016 -0.2986 -1.5747
v  -4.1148 -0.2986 -0.0000
v  -3.8016 -0.2986 1.5747
v  -2.9096 -0.2986 2.9096
v  -1.5747 -0.2986 3.8016
v  0.0000 -0.2986 4.1148
v  1.5747 -0.2986 3.8016
v  2.9096 -0.2986 2.9096
v  3.8016 -0.2986 1.5747
v  4.1148 -0.2986 -0.0000
v  3.2137 0.1164 -1.3312
v  2.4597 0.1164 -2.4597
v  0.0000 0.0762 -0.0000
v  1.3312 0.1164 -3.2137
v  0.0000 0.1164 -3.4785
v  -1.3312 0.1164 -3.2137
v  -2.4597 0.1164 -2.4597
v  -3.2137 0.1164 -1.3312
v  -3.4785 0.1164 -0.0000
v  -3.2137 0.1164 1.3312
v  -2.4597 0.1164 2.4597
v  -1.3312 0.1164 3.2137
v  0.0000 0.1164 3.4785
v  1.3312 0.1164 3.2137
v  2.4597 0.1164 2.4597
v  3.2137 0.1164 1.3312
v  3.4785 0.1164 -0.0000
v  3.7505 0.2986 -1.5535
v  4.0595 0.2986 -0.0000
v  3.7505 0.2986 1.5535
v  2.8705 0.2986 2.8705
v  1.5535 0.2986 3.7505
v  0.0000 0.2986 4.0595
v  -1.5535 0.2986 3.7505
v  -2.8705 0.2986 2.8705
v  -3.7505 0.2986 1.5535
v  -4.0595 0.2986 -0.0000
v  -3.7505 0.2986 -1.5535
v  -2.8705 0.2986 -2.8705
v  -1.5535 0.2986 -3.7505
v  0.0000 0.2986 -4.0595
v  1.5535 0.2986 -3.7505
v  2.8705 0.2986 -2.8705
# 82 vertices

vn 0.8758 -0.3185 -0.3628
vn 0.6703 -0.3185 -0.6703
vn 0.6464 0.4054 -0.6464
vn 0.8446 0.4054 -0.3498
vn 0.3628 -0.3185 -0.8758
vn 0.3498 0.4054 -0.8446
vn 0.0000 -0.3185 -0.9479
vn 0.0000 0.4054 -0.9141
vn -0.3628 -0.3185 -0.8758
vn -0.3498 0.4054 -0.8446
vn -0.6703 -0.3185 -0.6703
vn -0.6464 0.4054 -0.6464
vn -0.8758 -0.3185 -0.3628
vn -0.8446 0.4054 -0.3498
vn -0.9479 -0.3185 -0.0000
vn -0.9141 0.4054 -0.0000
vn -0.8758 -0.3185 0.3628
vn -0.8446 0.4054 0.3498
vn -0.6703 -0.3185 0.6703
vn -0.6464 0.4054 0.6464
vn -0.3628 -0.3185 0.8758
vn -0.3498 0.4054 0.8446
vn -0.0000 -0.3185 0.9479
vn -0.0000 0.4054 0.9141
vn 0.3628 -0.3185 0.8758
vn 0.3498 0.4054 0.8446
vn 0.6703 -0.3185 0.6703
vn 0.6464 0.4054 0.6464
vn 0.8758 -0.3185 0.3628
vn 0.8446 0.4054 0.3498
vn 0.9479 -0.3185 0.0000
vn 0.9141 0.4054 0.0000
vn 0.0619 -0.9962 -0.0619
vn 0.0809 -0.9962 -0.0335
vn 0.0000 -1.0000 -0.0000
vn 0.0335 -0.9962 -0.0809
vn 0.0000 -0.9962 -0.0875
vn -0.0335 -0.9962 -0.0809
vn -0.0619 -0.9962 -0.0619
vn -0.0809 -0.9962 -0.0335
vn -0.0875 -0.9962 -0.0000
vn -0.0809 -0.9962 0.0335
vn -0.0619 -0.9962 0.0619
vn -0.0335 -0.9962 0.0809
vn -0.0000 -0.9962 0.0875
vn 0.0335 -0.9962 0.0809
vn 0.0619 -0.9962 0.0619
vn 0.0809 -0.9962 0.0335
vn 0.0875 -0.9962 -0.0000
vn -0.0984 0.9943 0.0408
vn -0.0753 0.9943 0.0753
vn -0.0000 1.0000 0.0000
vn -0.0408 0.9943 0.0984
vn -0.0000 0.9943 0.1066
vn 0.0408 0.9943 0.0984
vn 0.0753 0.9943 0.0753
vn 0.0984 0.9943 0.0408
vn 0.1066 0.9943 0.0000
vn 0.0984 0.9943 -0.0408
vn 0.0753 0.9943 -0.0753
vn 0.0408 0.9943 -0.0984
vn 0.0000 0.9943 -0.1066
vn -0.0408 0.9943 -0.0984
vn -0.0753 0.9943 -0.0753
vn -0.0984 0.9943 -0.0408
vn -0.1066 0.9943 0.0000
vn 0.0431 0.9989 -0.0179
vn 0.0467 0.9989 0.0000
vn 0.0431 0.9989 0.0179
vn 0.0330 0.9989 0.0330
vn 0.0179 0.9989 0.0431
vn 0.0000 0.9989 0.0467
vn -0.0179 0.9989 0.0431
vn -0.0330 0.9989 0.0330
vn -0.0431 0.9989 0.0179
vn -0.0467 0.9989 0.0000
vn -0.0431 0.9989 -0.0179
vn -0.0330 0.9989 -0.0330
vn -0.0179 0.9989 -0.0431
vn 0.0000 0.9989 -0.0467
vn 0.0179 0.9989 -0.0431
vn 0.0330 0.9989 -0.0330
# 82 vertex normals

vt 0.0687 0.8824 0.0000
vt 0.0343 0.8082 0.0000
vt 0.0309 0.7264 0.0000
vt 0.0590 0.6496 0.0000
vt 0.1144 0.5894 0.0000
vt 0.1886 0.5550 0.0000
vt 0.2703 0.5516 0.0000
vt 0.3472 0.5797 0.0000
vt 0.4074 0.6351 0.0000
vt 0.4418 0.7093 0.0000
vt 0.4452 0.7910 0.0000
vt 0.4171 0.8679 0.0000
vt 0.3617 0.9281 0.0000
vt 0.2875 0.9625 0.0000
vt 0.2057 0.9659 0.0000
vt 0.1289 0.9378 0.0000
vt 0.5839 0.3975 0.0000
vt 0.5434 0.3368 0.0000
vt 0.7162 0.2652 0.0000
vt 0.6446 0.4380 0.0000
vt 0.7162 0.4523 0.0000
vt 0.7878 0.4380 0.0000
vt 0.8484 0.3975 0.0000
vt 0.8890 0.3368 0.0000
vt 0.9032 0.2652 0.0000
vt 0.8890 0.1937 0.0000
vt 0.8484 0.1330 0.0000
vt 0.7878 0.0924 0.0000
vt 0.7162 0.0782 0.0000
vt 0.6446 0.0924 0.0000
vt 0.5839 0.1330 0.0000
vt 0.5434 0.1937 0.0000
vt 0.5292 0.2652 0.0000
vt 0.1002 0.8594 0.0000
vt 0.0721 0.7990 0.0000
vt 0.2380 0.7587 0.0000
vt 0.0693 0.7324 0.0000
vt 0.0922 0.6699 0.0000
vt 0.1373 0.6209 0.0000
vt 0.1978 0.5928 0.0000
vt 0.2643 0.5901 0.0000
vt 0.3269 0.6130 0.0000
vt 0.3759 0.6581 0.0000
vt 0.4039 0.7185 0.0000
vt 0.4067 0.7850 0.0000
vt 0.3838 0.8476 0.0000
vt 0.3387 0.8966 0.0000
vt 0.2783 0.9247 0.0000
vt 0.2117 0.9274 0.0000
vt 0.1492 0.9045 0.0000
vt 0.0749 0.8778 0.0000
vt 0.0418 0.8064 0.0000
vt 0.0385 0.7276 0.0000
vt 0.0656 0.6536 0.0000
vt 0.1189 0.5956 0.0000
vt 0.1904 0.5625 0.0000
vt 0.2691 0.5592 0.0000
vt 0.3431 0.5863 0.0000
vt 0.4011 0.6396 0.0000
vt 0.4343 0.7111 0.0000
vt 0.4376 0.7899 0.0000
vt 0.4105 0.8638 0.0000
vt 0.3571 0.9218 0.0000
vt 0.2856 0.9550 0.0000
vt 0.2069 0.9583 0.0000
vt 0.1329 0.9312 0.0000
vt 0.0771 0.8762 0.0000
vt 0.1343 0.9289 0.0000
vt 0.2073 0.9556 0.0000
vt 0.2850 0.9524 0.0000
vt 0.3555 0.9196 0.0000
vt 0.4082 0.8624 0.0000
vt 0.4349 0.7894 0.0000
vt 0.4317 0.7118 0.0000
vt 0.3989 0.6412 0.0000
vt 0.3417 0.5886 0.0000
vt 0.2687 0.5619 0.0000
vt 0.1911 0.5651 0.0000
vt 0.1205 0.5978 0.0000
vt 0.0679 0.6550 0.0000
vt 0.0412 0.7280 0.0000
vt 0.0444 0.8057 0.0000
# 82 texture coords

o PizzaQueso
g PizzaQueso
usemtl 01___Default
s off
f 1/1/1 2/2/2 3/2/3 
f 3/2/3 4/1/4 1/1/1 
f 2/2/2 5/3/5 6/3/6 
f 6/3/6 3/2/3 2/2/2 
f 5/3/5 7/4/7 8/4/8 
f 8/4/8 6/3/6 5/3/5 
f 7/4/7 9/5/9 10/5/10 
f 10/5/10 8/4/8 7/4/7 
f 9/5/9 11/6/11 12/6/12 
f 12/6/12 10/5/10 9/5/9 
f 11/6/11 13/7/13 14/7/14 
f 14/7/14 12/6/12 11/6/11 
f 13/7/13 15/8/15 16/8/16 
f 16/8/16 14/7/14 13/7/13 
f 15/8/15 17/9/17 18/9/18 
f 18/9/18 16/8/16 15/8/15 
f 17/9/17 19/10/19 20/10/20 
f 20/10/20 18/9/18 17/9/17 
f 19/10/19 21/11/21 22/11/22 
f 22/11/22 20/10/20 19/10/19 
f 21/11/21 23/12/23 24/12/24 
f 24/12/24 22/11/22 21/11/21 
f 23/12/23 25/13/25 26/13/26 
f 26/13/26 24/12/24 23/12/23 
f 25/13/25 27/14/27 28/14/28 
f 28/14/28 26/13/26 25/13/25 
f 27/14/27 29/15/29 30/15/30 
f 30/15/30 28/14/28 27/14/27 
f 29/15/29 31/16/31 32/16/32 
f 32/16/32 30/15/30 29/15/29 
f 31/16/31 1/1/1 4/1/4 
f 4/1/4 32/16/32 31/16/31 
f 33/17/33 34/18/34 35/19/35 
f 36/20/36 33/17/33 35/19/35 
f 37/21/37 36/20/36 35/19/35 
f 38/22/38 37/21/37 35/19/35 
f 39/23/39 38/22/38 35/19/35 
f 40/24/40 39/23/39 35/19/35 
f 41/25/41 40/24/40 35/19/35 
f 42/26/42 41/25/41 35/19/35 
f 43/27/43 42/26/42 35/19/35 
f 44/28/44 43/27/43 35/19/35 
f 45/29/45 44/28/44 35/19/35 
f 46/30/46 45/29/45 35/19/35 
f 47/31/47 46/30/46 35/19/35 
f 48/32/48 47/31/47 35/19/35 
f 49/33/49 48/32/48 35/19/35 
f 34/18/34 49/33/49 35/19/35 
f 50/34/50 51/35/51 52/36/52 
f 51/35/51 53/37/53 52/36/52 
f 53/37/53 54/38/54 52/36/52 
f 54/38/54 55/39/55 52/36/52 
f 55/39/55 56/40/56 52/36/52 
f 56/40/56 57/41/57 52/36/52 
f 57/41/57 58/42/58 52/36/52 
f 58/42/58 59/43/59 52/36/52 
f 59/43/59 60/44/60 52/36/52 
f 60/44/60 61/45/61 52/36/52 
f 61/45/61 62/46/62 52/36/52 
f 62/46/62 63/47/63 52/36/52 
f 63/47/63 64/48/64 52/36/52 
f 64/48/64 65/49/65 52/36/52 
f 65/49/65 66/50/66 52/36/52 
f 66/50/66 50/34/50 52/36/52 
f 34/51/34 33/52/33 2/2/2 
f 2/2/2 1/1/1 34/51/34 
f 33/52/33 36/53/36 5/3/5 
f 5/3/5 2/2/2 33/52/33 
f 36/53/36 37/54/37 7/4/7 
f 7/4/7 5/3/5 36/53/36 
f 37/54/37 38/55/38 9/5/9 
f 9/5/9 7/4/7 37/54/37 
f 38/55/38 39/56/39 11/6/11 
f 11/6/11 9/5/9 38/55/38 
f 39/56/39 40/57/40 13/7/13 
f 13/7/13 11/6/11 39/56/39 
f 40/57/40 41/58/41 15/8/15 
f 15/8/15 13/7/13 40/57/40 
f 41/58/41 42/59/42 17/9/17 
f 17/9/17 15/8/15 41/58/41 
f 42/59/42 43/60/43 19/10/19 
f 19/10/19 17/9/17 42/59/42 
f 43/60/43 44/61/44 21/11/21 
f 21/11/21 19/10/19 43/60/43 
f 44/61/44 45/62/45 23/12/23 
f 23/12/23 21/11/21 44/61/44 
f 45/62/45 46/63/46 25/13/25 
f 25/13/25 23/12/23 45/62/45 
f 46/63/46 47/64/47 27/14/27 
f 27/14/27 25/13/25 46/63/46 
f 47/64/47 48/65/48 29/15/29 
f 29/15/29 27/14/27 47/64/47 
f 48/65/48 49/66/49 31/16/31 
f 31/16/31 29/15/29 48/65/48 
f 49/66/49 34/51/34 1/1/1 
f 1/1/1 31/16/31 49/66/49 
f 32/16/32 4/1/4 67/67/67 
f 67/67/67 68/68/68 32/16/32 
f 30/15/30 32/16/32 68/68/68 
f 68/68/68 69/69/69 30/15/30 
f 28/14/28 30/15/30 69/69/69 
f 69/69/69 70/70/70 28/14/28 
f 26/13/26 28/14/28 70/70/70 
f 70/70/70 71/71/71 26/13/26 
f 24/12/24 26/13/26 71/71/71 
f 71/71/71 72/72/72 24/12/24 
f 22/11/22 24/12/24 72/72/72 
f 72/72/72 73/73/73 22/11/22 
f 20/10/20 22/11/22 73/73/73 
f 73/73/73 74/74/74 20/10/20 
f 18/9/18 20/10/20 74/74/74 
f 74/74/74 75/75/75 18/9/18 
f 16/8/16 18/9/18 75/75/75 
f 75/75/75 76/76/76 16/8/16 
f 14/7/14 16/8/16 76/76/76 
f 76/76/76 77/77/77 14/7/14 
f 12/6/12 14/7/14 77/77/77 
f 77/77/77 78/78/78 12/6/12 
f 10/5/10 12/6/12 78/78/78 
f 78/78/78 79/79/79 10/5/10 
f 8/4/8 10/5/10 79/79/79 
f 79/79/79 80/80/80 8/4/8 
f 6/3/6 8/4/8 80/80/80 
f 80/80/80 81/81/81 6/3/6 
f 3/2/3 6/3/6 81/81/81 
f 81/81/81 82/82/82 3/2/3 
f 4/1/4 3/2/3 82/82/82 
f 82/82/82 67/67/67 4/1/4 
f 67/67/67 82/82/82 51/35/51 
f 51/35/51 50/34/50 67/67/67 
f 82/82/82 81/81/81 53/37/53 
f 53/37/53 51/35/51 82/82/82 
f 81/81/81 80/80/80 54/38/54 
f 54/38/54 53/37/53 81/81/81 
f 80/80/80 79/79/79 55/39/55 
f 55/39/55 54/38/54 80/80/80 
f 79/79/79 78/78/78 56/40/56 
f 56/40/56 55/39/55 79/79/79 
f 78/78/78 77/77/77 57/41/57 
f 57/41/57 56/40/56 78/78/78 
f 77/77/77 76/76/76 58/42/58 
f 58/42/58 57/41/57 77/77/77 
f 76/76/76 75/75/75 59/43/59 
f 59/43/59 58/42/58 76/76/76 
f 75/75/75 74/74/74 60/44/60 
f 60/44/60 59/43/59 75/75/75 
f 74/74/74 73/73/73 61/45/61 
f 61/45/61 60/44/60 74/74/74 
f 73/73/73 72/72/72 62/46/62 
f 62/46/62 61/45/61 73/73/73 
f 72/72/72 71/71/71 63/47/63 
f 63/47/63 62/46/62 72/72/72 
f 71/71/71 70/70/70 64/48/64 
f 64/48/64 63/47/63 71/71/71 
f 70/70/70 69/69/69 65/49/65 
f 65/49/65 64/48/64 70/70/70 
f 69/69/69 68/68/68 66/50/66 
f 66/50/66 65/49/65 69/69/69 
f 68/68/68 67/67/67 50/34/50 
f 50/34/50 66/50/66 68/68/68 
# 160 faces

