# 3ds Max Wavefront OBJ Exporter v0.99 - (c)2007 guruware
# File Created: 01.05.2025 00:59:34

mtllib TableroMesaDados_obj.mtl

#
# object Tablero
#

v  0.0000 -0.2500 -0.0000
v  -6.3750 -0.2500 -4.0000
v  0.0000 -0.2500 -8.0000
v  6.3750 -0.2500 4.0000
v  0.0000 -0.2500 8.0000
v  6.3750 0.2500 -4.0000
v  6.3750 0.2500 4.0000
v  12.7500 0.2500 -0.0000
v  -6.3750 0.2500 4.0000
v  -6.3750 0.2500 -4.0000
v  -12.7500 0.2500 -0.0000
v  0.0000 0.0000 8.0000
v  12.7500 -0.2500 8.0000
v  12.7500 0.2500 8.0000
v  -12.7500 0.2500 8.0000
v  -12.7500 -0.2500 8.0000
v  12.7500 0.0000 -0.0000
v  12.7500 -0.2500 -8.0000
v  12.7500 0.2500 -8.0000
v  0.0000 0.0000 -8.0000
v  -12.7500 -0.2500 -8.0000
v  -12.7500 0.2500 -8.0000
v  -12.7500 0.0000 -0.0000
v  0.0000 0.2500 8.0000
v  0.0000 0.2500 -0.0000
v  0.0000 0.2500 -8.0000
v  -6.3750 -0.2500 4.0000
v  -12.7500 -0.2500 -0.0000
v  6.3750 -0.2500 -4.0000
v  12.7500 -0.2500 -0.0000
# 30 vertices

vn 0.0000 -1.0000 -0.0000
vn 0.0000 1.0000 -0.0000
vn 0.0000 0.0000 1.0000
vn 1.0000 0.0000 -0.0000
vn 0.0000 0.0000 -1.0000
vn -1.0000 0.0000 -0.0000
# 6 vertex normals

vt 0.8803 0.6887 0.0000
vt 0.9128 0.7212 0.0000
vt 0.8803 0.7537 0.0000
vt 0.8478 0.6563 0.0000
vt 0.8803 0.6238 0.0000
vt 0.7277 0.8712 0.0000
vt 0.7277 0.6518 0.0000
vt 0.9472 0.7615 0.0000
vt 0.2888 0.6518 0.0000
vt 0.2888 0.8712 0.0000
vt 0.0693 0.7615 0.0000
vt 0.9453 0.6238 0.0000
vt 0.9453 0.7537 0.0000
vt 0.8154 0.7537 0.0000
vt 0.8154 0.6238 0.0000
vt 0.5082 0.5421 0.0000
vt 0.5082 0.7615 0.0000
vt 0.5082 0.9808 0.0000
vt 0.9128 0.6563 0.0000
vt 0.9453 0.6887 0.0000
vt 0.8478 0.7212 0.0000
vt 0.8154 0.6887 0.0000
vt 0.9472 0.5421 0.0000
vt 0.0693 0.9808 0.0000
vt 0.9472 0.9808 0.0000
vt 0.0693 0.5421 0.0000
# 26 texture coords

o Tablero
g Tablero
usemtl 01___Default
s 1
f 1/1/1 2/2/1 3/3/1 
f 1/1/1 4/4/1 5/5/1 
f 6/6/2 7/7/2 8/8/2 
f 9/9/2 10/10/2 11/11/2 
s 2
f 12/1/3 13/12/3 14/13/3 
f 12/1/3 15/14/3 16/15/3 
s 4
f 17/1/4 18/12/4 19/13/4 
f 17/1/4 14/14/4 13/15/4 
s 2
f 20/1/5 21/12/5 22/13/5 
f 20/1/5 19/14/5 18/15/5 
s 4
f 23/1/6 16/12/6 15/13/6 
f 23/1/6 22/14/6 21/15/6 
s 1
f 9/9/2 24/16/2 25/17/2 
f 6/6/2 26/18/2 25/17/2 
f 27/19/1 28/20/1 2/2/1 
f 29/21/1 30/22/1 4/4/1 
s 2
f 18/15/5 3/5/5 20/1/5 
f 22/13/5 26/3/5 20/1/5 
f 16/15/3 5/5/3 12/1/3 
f 14/13/3 24/3/3 12/1/3 
f 24/3/3 15/14/3 12/1/3 
s 1
f 24/16/2 14/23/2 7/7/2 
s 2
f 26/3/5 19/14/5 20/1/5 
s 1
f 26/18/2 22/24/2 10/10/2 
s 2
f 3/5/5 21/12/5 20/1/5 
s 1
f 29/21/1 3/3/1 18/14/1 
s 2
f 5/5/3 13/12/3 12/1/3 
s 1
f 27/19/1 5/5/1 16/12/1 
s 4
f 21/15/6 28/5/6 23/1/6 
f 15/13/6 11/3/6 23/1/6 
f 13/15/4 30/5/4 17/1/4 
f 19/13/4 8/3/4 17/1/4 
f 8/3/4 14/14/4 17/1/4 
s 1
f 6/6/2 8/8/2 19/25/2 
s 4
f 11/3/6 22/14/6 23/1/6 
s 1
f 9/9/2 11/11/2 15/26/2 
s 4
f 28/5/6 16/12/6 23/1/6 
s 1
f 28/20/1 21/13/1 2/2/1 
s 4
f 30/5/4 18/12/4 17/1/4 
s 1
f 30/22/1 13/15/1 4/4/1 
f 25/17/2 10/10/2 9/9/2 
f 15/26/2 24/16/2 9/9/2 
f 7/7/2 14/23/2 8/8/2 
f 24/16/2 7/7/2 25/17/2 
f 25/17/2 7/7/2 6/6/2 
f 19/25/2 26/18/2 6/6/2 
f 10/10/2 22/24/2 11/11/2 
f 26/18/2 10/10/2 25/17/2 
f 27/19/1 2/2/1 1/1/1 
f 2/2/1 21/13/1 3/3/1 
f 18/14/1 30/22/1 29/21/1 
f 1/1/1 3/3/1 29/21/1 
f 29/21/1 4/4/1 1/1/1 
f 4/4/1 13/15/1 5/5/1 
f 16/12/1 28/20/1 27/19/1 
f 1/1/1 5/5/1 27/19/1 
# 56 faces

